<svg width="430" height="296" viewBox="0 0 430 296" fill="none" xmlns="http://www.w3.org/2000/svg">
<path d="M299.785 207.477C336.166 207.477 365.659 177.984 365.659 141.603C365.659 105.222 336.166 75.7288 299.785 75.7288C263.404 75.7288 233.911 105.222 233.911 141.603C233.911 177.984 263.404 207.477 299.785 207.477Z" fill="#FDCD01"/>
<path d="M299.328 197.042C330.021 197.042 354.902 172.16 354.902 141.467C354.902 110.774 330.021 85.8928 299.328 85.8928C268.635 85.8928 243.753 110.774 243.753 141.467C243.753 172.16 268.635 197.042 299.328 197.042Z" fill="url(#paint0_linear_26_234)"/>
<path d="M254.452 94.9298L332.667 198.195C332.667 198.195 346.838 190.117 352.358 178.002L277.64 81.5901" fill="url(#paint1_linear_26_234)"/>
<path d="M318.799 159.026C318.271 160.45 317.516 161.779 316.564 162.962C315.671 164.06 314.633 165.033 313.479 165.854C312.435 166.605 311.296 167.214 310.091 167.664C307.979 168.408 305.77 168.841 303.534 168.952C301.121 169.107 298.782 169.184 296.519 169.184H269.924V168.411C271.177 168.219 272.405 167.884 273.582 167.413C274.661 167.001 275.625 166.338 276.397 165.48C276.707 165.081 276.927 164.62 277.041 164.128C277.196 163.535 277.338 162.839 277.466 162.086C277.595 161.332 277.685 160.508 277.737 159.657C277.788 158.807 277.814 157.976 277.814 157.152C277.814 156.437 277.814 155.458 277.853 154.221C277.892 152.984 277.898 151.645 277.924 150.176C277.95 148.707 277.969 147.207 277.969 145.667V133.738C277.969 132.611 277.969 131.458 277.924 130.273C277.879 129.088 277.924 127.728 277.924 126.189C277.924 125.262 277.892 124.328 277.846 123.374C277.801 122.421 277.698 121.513 277.576 120.637C277.464 119.845 277.309 119.06 277.112 118.286C277.002 117.728 276.749 117.209 276.378 116.778C275.746 116.055 274.954 115.488 274.065 115.123C273.02 114.786 271.939 114.57 270.845 114.479V113.712H296.829C298.698 113.709 300.565 113.823 302.42 114.054C304.181 114.283 305.91 114.716 307.572 115.342C310.083 116.243 312.314 117.784 314.046 119.812C315.751 121.973 316.618 124.677 316.487 127.426C316.487 130.818 315.394 133.556 313.209 135.638C310.827 137.82 307.873 139.277 304.693 139.838V140.147C306.569 140.36 308.409 140.815 310.168 141.5C311.918 142.164 313.546 143.113 314.986 144.308C316.383 145.472 317.535 146.901 318.374 148.514C319.25 150.216 319.692 152.108 319.663 154.021C319.683 155.728 319.39 157.425 318.799 159.026ZM305.653 120.559C304.481 118.671 302.778 117.17 300.758 116.244C298.447 115.213 295.493 114.698 291.895 114.698C290.916 114.693 289.937 114.744 288.964 114.853C288.285 114.917 287.614 115.046 286.961 115.239C286.909 115.548 286.858 115.832 286.806 116.089C286.747 116.406 286.708 116.727 286.69 117.049C286.664 117.435 286.639 117.912 286.613 118.479C286.613 119.046 286.548 119.767 286.497 120.714C286.445 122.509 286.407 124.486 286.381 126.646C286.355 128.806 286.342 130.863 286.342 132.817V140.218H290.658C291.843 140.218 292.79 140.218 293.511 140.141C298.136 139.883 301.644 138.573 304.036 136.212C305.205 135.072 306.127 133.704 306.743 132.192C307.359 130.68 307.657 129.058 307.618 127.426C307.66 124.993 306.976 122.602 305.653 120.559ZM309.93 150.666C309.446 149.363 308.768 148.14 307.92 147.039C307.075 145.937 306.062 144.974 304.919 144.186C303.74 143.382 302.454 142.746 301.099 142.298C299.989 141.954 298.848 141.718 297.692 141.596C296.397 141.46 295.096 141.398 293.795 141.41H286.342V151.071C286.342 152.506 286.355 153.828 286.381 155.039C286.381 156.25 286.42 157.287 286.42 158.163C286.471 160.117 286.561 161.723 286.69 162.981C286.769 164.104 287.157 165.183 287.811 166.099C288.375 166.74 289.09 167.232 289.891 167.529C291.178 167.973 292.538 168.169 293.898 168.108C295.521 168.1 297.143 167.997 298.755 167.799C300.536 167.581 302.262 167.033 303.843 166.182C305.887 165.154 307.617 163.597 308.854 161.673C310.08 159.642 310.695 157.301 310.626 154.93C310.653 153.478 310.417 152.033 309.93 150.666Z" fill="#FDCD01"/>
<path d="M290.458 103.799H285.724V114.801H290.458V103.799Z" fill="#FDCD01"/>
<path d="M300.114 103.799H295.379V114.801H300.114V103.799Z" fill="#FDCD01"/>
<path d="M290.458 168.978H285.724V179.979H290.458V168.978Z" fill="#FDCD01"/>
<path d="M300.114 168.978H295.379V179.979H300.114V168.978Z" fill="#FDCD01"/>
<path d="M277.988 211.309L102.421 259.586C94.3568 261.808 85.7321 256.011 83.162 246.639L46.486 112.843C43.9095 103.471 48.3797 94.0797 56.4505 91.8574L231.992 43.5808C240.063 41.3586 248.687 47.1557 251.257 56.5276L287.933 190.324C290.516 199.696 286.059 209.093 277.988 211.309Z" fill="#68E1FD"/>
<path d="M278.574 211.193L103.007 259.47C94.9364 261.692 86.3117 255.895 83.7481 246.523L47.0656 112.727C44.4891 103.355 48.9593 93.9572 57.0237 91.7415L232.591 43.4649C240.662 41.2427 249.286 47.0397 251.85 56.4116L288.532 190.208C291.102 199.567 286.639 208.971 278.574 211.193Z" fill="url(#paint2_linear_26_234)"/>
<path d="M282.459 212.449L106.898 260.693C98.8271 262.915 90.2024 257.118 87.6324 247.747L50.9563 113.95C48.3798 104.579 52.8436 95.1809 60.9144 92.9651L236.501 44.6885C244.572 42.4663 253.196 48.2634 255.766 57.6353L292.449 191.431C294.987 200.803 290.529 210.194 282.459 212.449Z" fill="#68E1FD"/>
<path d="M246.723 55.2287L58.1426 106.889L96.9203 248.442L285.5 196.782L246.723 55.2287Z" fill="url(#paint3_linear_26_234)"/>
<path d="M264.429 124.347C265.125 125.571 265.202 127.046 265.563 128.405C265.979 129.677 266.463 130.926 267.012 132.147C268.745 136.591 268.9 141.719 271.702 145.577C272.832 147 274.13 148.283 275.566 149.397C275.992 149.699 276.333 150.104 276.558 150.575C276.657 150.894 276.699 151.228 276.681 151.561C276.671 153.861 276.319 156.147 275.637 158.343C279.057 156.714 282.722 155.458 285.711 153.12C288.7 150.781 290.941 146.988 290.117 143.284C288.919 137.886 282.046 135.207 280.887 129.802C280.423 127.651 280.97 125.377 280.513 123.22C280.293 122.214 279.861 121.267 279.247 120.441C278.633 119.614 277.85 118.928 276.951 118.427C276.094 117.957 275.161 117.667 274.304 117.204C272.872 116.38 271.661 115.222 270.774 113.828C270.13 112.888 269.563 111.838 268.578 111.252C265.808 109.68 259.715 111.11 258.742 114.472C258.434 115.461 258.391 116.513 258.617 117.524C258.843 118.534 259.331 119.468 260.03 120.231C261.409 121.732 263.418 122.543 264.429 124.347Z" fill="#606161"/>
<path d="M264.429 124.347C265.125 125.571 265.202 127.046 265.563 128.405C265.979 129.677 266.463 130.926 267.012 132.147C268.745 136.591 268.9 141.719 271.702 145.577C272.832 147 274.13 148.283 275.566 149.397C275.992 149.699 276.333 150.104 276.558 150.575C276.657 150.894 276.699 151.228 276.681 151.561C276.671 153.861 276.319 156.147 275.637 158.343C279.057 156.714 282.722 155.458 285.711 153.12C288.7 150.781 290.941 146.988 290.117 143.284C288.919 137.886 282.046 135.207 280.887 129.802C280.423 127.651 280.97 125.377 280.513 123.22C280.293 122.214 279.861 121.267 279.247 120.441C278.633 119.614 277.85 118.928 276.951 118.427C276.094 117.957 275.161 117.667 274.304 117.204C272.872 116.38 271.661 115.222 270.774 113.828C270.13 112.888 269.563 111.838 268.578 111.252C265.808 109.68 259.715 111.11 258.742 114.472C258.434 115.461 258.391 116.513 258.617 117.524C258.843 118.534 259.331 119.468 260.03 120.231C261.409 121.732 263.418 122.543 264.429 124.347Z" fill="url(#paint4_linear_26_234)"/>
<path d="M410.973 236.114C409.292 247.618 375.907 256.629 336.416 256.223C296.925 255.818 266.285 246.162 267.966 234.658C268.185 233.177 268.829 227.618 269.95 221.608C270.079 220.887 270.207 220.198 270.336 219.47C272.488 213.473 283.328 208.249 298.993 204.855C311.412 208.533 326.574 214.42 342.516 214.581C358.194 214.742 374.477 209.28 387.701 205.493C402.857 209.203 412.545 214.704 413.04 220.829C412.944 221.654 412.854 222.472 412.757 223.264V223.328C412.081 229.377 411.173 234.768 410.973 236.114Z" fill="#FDCD01"/>
<path d="M410.973 236.114C409.292 247.618 375.907 256.629 336.416 256.223C296.925 255.818 266.285 246.162 267.966 234.658C268.185 233.177 268.829 227.618 269.95 221.608C270.079 220.887 270.207 220.198 270.336 219.47C272.488 213.473 283.328 208.249 298.993 204.855C311.412 208.533 326.574 214.42 342.516 214.581C358.194 214.742 374.477 209.28 387.701 205.493C402.857 209.203 412.545 214.704 413.04 220.829C412.944 221.654 412.854 222.472 412.757 223.264V223.328C412.081 229.377 411.173 234.768 410.973 236.114Z" fill="url(#paint5_linear_26_234)"/>
<path d="M412.989 222.246C412.938 222.592 412.854 222.933 412.738 223.264V223.328C409.227 234.278 376.667 242.71 338.445 242.323C299.882 241.93 269.75 232.732 269.937 221.608C269.932 221.333 269.949 221.057 269.988 220.784C270.054 220.344 270.166 219.912 270.323 219.496C272.475 213.499 283.315 208.275 298.98 204.881C311.663 202.111 327.521 200.526 344.539 200.7C361.047 200.874 375.997 202.671 387.695 205.518C402.851 209.228 412.538 214.729 413.034 220.855C413.078 221.318 413.063 221.786 412.989 222.246Z" fill="#FDCD01"/>
<path d="M399.462 220.823C399.421 221.106 399.352 221.384 399.256 221.653V221.711C396.383 230.684 369.73 237.582 338.413 237.26C306.851 236.938 282.162 229.409 282.31 220.301C282.306 220.085 282.319 219.87 282.349 219.657C282.406 219.29 282.498 218.93 282.626 218.581C284.391 213.666 293.267 209.389 306.091 206.613C316.481 204.346 329.466 203.045 343.411 203.193C356.938 203.328 369.176 204.803 378.741 207.135C391.16 210.175 399.089 214.678 399.495 219.695C399.529 220.071 399.519 220.45 399.462 220.823Z" fill="url(#paint6_linear_26_234)"/>
<path d="M325.537 230.446C323.922 230.438 322.309 230.332 320.706 230.13C319.382 229.969 318.069 229.721 316.777 229.39C315.804 229.143 314.853 228.814 313.936 228.404C312.774 227.877 311.719 227.139 310.825 226.227C310.086 225.45 309.398 224.626 308.764 223.76L301.885 214.285L302.722 214.188C303.348 214.665 304.029 215.063 304.751 215.374C306.143 215.992 307.662 216.272 309.183 216.192C309.857 216.192 310.63 216.159 311.502 216.095C312.371 216.043 313.267 215.979 314.201 215.889C315.135 215.799 316.036 215.715 316.932 215.612L320.107 215.264L324.506 214.8L329.395 214.259L334.233 213.712L338.658 213.209L342.329 212.797L346.065 212.359C347.353 212.205 348.824 212.033 350.477 211.844C351.482 211.728 352.487 211.606 353.505 211.47C354.522 211.335 355.482 211.193 356.397 211.039C357.311 210.884 358.116 210.736 358.819 210.588C359.314 210.501 359.797 210.352 360.255 210.143C360.944 209.763 361.343 209.422 361.453 209.113C361.55 208.7 361.505 208.266 361.324 207.883L362.155 207.786L368.873 217.042C369.337 217.657 369.701 218.342 369.949 219.071C370.154 219.719 370.136 220.418 369.897 221.055C369.517 222.111 368.461 223.058 366.735 223.908C365.009 224.758 362.471 225.37 359.134 225.75C355.9 226.176 352.62 226.122 349.402 225.589C347.002 225.225 344.703 224.368 342.651 223.071L342.323 223.109C342.578 223.794 342.562 224.549 342.278 225.222C341.887 226.067 341.264 226.782 340.481 227.283C339.349 228.037 338.111 228.619 336.809 229.01C334.972 229.57 333.084 229.948 331.173 230.137C329.302 230.355 327.42 230.458 325.537 230.446ZM363.752 221.055C365.588 220.34 366.715 219.58 367.16 218.781C367.675 217.828 367.463 216.713 366.516 215.432C366.248 215.057 365.939 214.713 365.595 214.407C365.309 214.154 364.993 213.938 364.654 213.763L363.701 213.808C363.405 213.808 363.057 213.847 362.625 213.886L361.067 214.034L358.619 214.266C356.656 214.463 354.509 214.693 352.178 214.955C349.833 215.206 347.604 215.457 345.492 215.696L340.152 216.301L337.485 216.604L338.606 218.137C338.853 218.494 339.127 218.832 339.424 219.148C340.899 220.758 343.224 221.853 346.4 222.414C349.851 222.979 353.365 223.047 356.835 222.613C359.197 222.387 361.521 221.863 363.752 221.055ZM332.281 226.253C333.445 225.963 334.583 225.575 335.682 225.093C336.522 224.743 337.303 224.262 337.994 223.67C338.495 223.255 338.863 222.702 339.051 222.079C339.149 221.651 339.123 221.204 338.973 220.791C338.773 220.286 338.504 219.811 338.175 219.38L336.242 216.72L330.902 217.319L325.814 217.899L321.531 218.395C320.242 218.556 319.109 218.684 318.162 218.794C316.062 219.052 314.344 219.281 313.009 219.483C311.952 219.611 310.915 219.873 309.924 220.262C309.489 220.436 309.132 220.761 308.919 221.177C308.738 221.557 308.874 222.053 309.331 222.678C309.8 223.297 310.333 223.865 310.922 224.372C311.834 225.097 312.874 225.643 313.988 225.982C315.985 226.659 318.061 227.072 320.165 227.212C322.742 227.398 325.33 227.333 327.894 227.019C329.373 226.868 330.839 226.612 332.281 226.253Z" fill="#FDCD01"/>
<path d="M366.058 214.935L364.828 213.248L376.731 211.901L377.962 213.589L366.058 214.935Z" fill="#FDCD01"/>
<path d="M368.551 218.375L367.328 216.688L379.231 215.341L380.455 217.029L368.551 218.375Z" fill="#FDCD01"/>
<path d="M295.547 222.922L294.323 221.235L306.226 219.889L307.45 221.576L295.547 222.922Z" fill="#FDCD01"/>
<path d="M298.039 226.362L296.815 224.674L308.719 223.328L309.943 225.016L298.039 226.362Z" fill="#FDCD01"/>
<path d="M288.03 207.985L377.563 238.562C377.563 238.562 398.599 235.985 403.971 230.027L315.818 201.782C315.818 201.782 290.388 206.156 288.03 207.985Z" fill="url(#paint7_linear_26_234)"/>
<path d="M408.982 215.148C407.295 226.652 373.917 235.637 334.407 235.257C294.896 234.877 264.269 225.196 265.956 213.692C266.169 212.211 266.813 206.652 267.94 200.642C268.069 199.921 268.198 199.232 268.327 198.504C270.478 192.507 281.318 187.283 296.977 183.889C309.402 187.567 324.558 193.454 340.506 193.615C356.184 193.776 372.467 188.314 385.691 184.527C400.847 188.237 410.535 193.737 411.031 199.863C410.934 200.687 410.838 201.506 410.747 202.298V202.362C410.09 208.41 409.182 213.802 408.982 215.148Z" fill="#FDCD01"/>
<path d="M408.982 215.148C407.295 226.652 373.917 235.637 334.407 235.257C294.896 234.877 264.269 225.196 265.956 213.692C266.169 212.211 266.813 206.652 267.94 200.642C268.069 199.921 268.198 199.232 268.327 198.504C270.478 192.507 281.318 187.283 296.977 183.889C309.402 187.567 324.558 193.454 340.506 193.615C356.184 193.776 372.467 188.314 385.691 184.527C400.847 188.237 410.535 193.737 411.031 199.863C410.934 200.687 410.838 201.506 410.747 202.298V202.362C410.09 208.41 409.182 213.802 408.982 215.148Z" fill="url(#paint8_linear_26_234)"/>
<path d="M411.011 201.28C410.966 201.627 410.884 201.968 410.766 202.298V202.362C407.249 213.312 374.696 221.744 336.467 221.357C297.911 220.964 267.779 211.766 267.965 200.642C267.955 200.367 267.97 200.091 268.011 199.818C268.081 199.378 268.196 198.947 268.352 198.53C270.503 192.533 281.344 187.309 297.002 183.915C309.685 181.145 325.55 179.56 342.567 179.734C359.076 179.902 374.026 181.705 385.723 184.552C400.879 188.263 410.567 193.763 411.063 199.889C411.104 200.353 411.087 200.82 411.011 201.28Z" fill="#FDCD01"/>
<path d="M397.459 199.831C397.42 200.114 397.353 200.392 397.259 200.662V200.72C394.38 209.692 367.733 216.591 336.416 216.269C304.854 215.947 280.159 208.417 280.313 199.309C280.307 199.083 280.32 198.857 280.352 198.633C280.408 198.266 280.501 197.905 280.629 197.557C282.387 192.642 291.27 188.365 304.094 185.583C314.484 183.322 327.469 182.021 341.408 182.163C354.934 182.304 367.173 183.779 376.744 186.111C389.156 189.151 397.092 193.654 397.498 198.671C397.536 199.058 397.523 199.448 397.459 199.831Z" fill="url(#paint9_linear_26_234)"/>
<path d="M323.54 209.48C321.925 209.471 320.312 209.366 318.709 209.164C317.387 209.002 316.077 208.754 314.787 208.423C313.813 208.178 312.863 207.848 311.946 207.438C310.783 206.911 309.728 206.173 308.835 205.261C308.095 204.482 307.405 203.658 306.767 202.794L299.895 193.319L300.726 193.222C301.353 193.696 302.034 194.094 302.755 194.407C303.654 194.788 304.601 195.043 305.569 195.167C306.108 195.231 306.651 195.25 307.193 195.225C307.871 195.225 308.644 195.193 309.511 195.129C310.375 195.077 311.276 195.013 312.204 194.923C313.131 194.832 314.046 194.742 314.935 194.646L318.117 194.298L322.516 193.834L327.405 193.293L332.242 192.745L336.661 192.243L340.332 191.831L344.075 191.386L348.487 190.878C349.492 190.762 350.497 190.639 351.514 190.504C352.532 190.369 353.492 190.227 354.4 190.072C355.308 189.918 356.12 189.77 356.828 189.615C357.325 189.533 357.808 189.384 358.265 189.171C358.954 188.797 359.353 188.456 359.456 188.146C359.557 187.734 359.511 187.299 359.327 186.916L360.165 186.82L366.883 196.076C367.347 196.69 367.708 197.375 367.952 198.105C368.164 198.752 368.146 199.453 367.901 200.088C367.521 201.138 366.471 202.092 364.738 202.942C363.005 203.792 360.48 204.404 357.144 204.784C353.909 205.207 350.63 205.152 347.411 204.623C345.011 204.259 342.713 203.401 340.661 202.104L340.326 202.143C340.585 202.827 340.568 203.584 340.281 204.256C339.895 205.103 339.271 205.819 338.484 206.317C337.354 207.071 336.119 207.652 334.819 208.043C332.982 208.603 331.094 208.981 329.183 209.17C327.31 209.389 325.426 209.492 323.54 209.48ZM361.762 200.082C363.592 199.373 364.725 198.613 365.17 197.815C365.676 196.861 365.462 195.745 364.526 194.465C364.256 194.09 363.945 193.747 363.598 193.441C363.314 193.189 363 192.973 362.664 192.797L361.704 192.849C361.414 192.849 361.06 192.887 360.635 192.926L359.07 193.074L356.622 193.306C354.69 193.506 352.513 193.737 350.181 193.989L343.502 194.736L338.162 195.341L335.495 195.638L336.609 197.177C336.859 197.532 337.134 197.868 337.434 198.182C338.903 199.796 341.226 200.887 344.403 201.454C347.856 202.019 351.372 202.087 354.844 201.654C357.208 201.426 359.532 200.898 361.762 200.082ZM330.291 205.286C331.454 204.994 332.592 204.606 333.692 204.127C334.529 203.774 335.307 203.294 335.998 202.704C336.501 202.291 336.869 201.736 337.054 201.113C337.152 200.685 337.127 200.239 336.983 199.824C336.782 199.32 336.513 198.846 336.184 198.414L334.252 195.747L328.919 196.353L323.83 196.932L319.54 197.428C318.252 197.589 317.118 197.718 316.178 197.828C314.072 198.085 312.365 198.311 311.025 198.517C309.968 198.645 308.931 198.907 307.94 199.296C307.505 199.471 307.147 199.796 306.929 200.211C306.755 200.584 306.89 201.087 307.341 201.712C307.808 202.33 308.342 202.896 308.932 203.399C309.842 204.127 310.883 204.676 311.998 205.016C313.995 205.691 316.071 206.105 318.175 206.246C320.751 206.432 323.34 206.367 325.904 206.053C327.383 205.901 328.848 205.645 330.291 205.286Z" fill="#FDCD01"/>
<path d="M364.062 193.969L362.838 192.282L374.741 190.936L375.965 192.623L364.062 193.969Z" fill="#FDCD01"/>
<path d="M366.561 197.409L365.337 195.721L377.24 194.375L378.464 196.063L366.561 197.409Z" fill="#FDCD01"/>
<path d="M293.55 201.956L292.326 200.269L304.229 198.923L305.453 200.61L293.55 201.956Z" fill="#FDCD01"/>
<path d="M296.049 205.396L294.825 203.708L306.728 202.362L307.952 204.043L296.049 205.396Z" fill="#FDCD01"/>
<path d="M286.059 187.019L375.591 217.596C375.591 217.596 396.628 215.019 402 209.055L313.827 180.817C313.827 180.817 288.397 185.19 286.059 187.019Z" fill="url(#paint10_linear_26_234)"/>
<path d="M391.379 208.043C389.691 219.534 356.307 228.552 316.822 228.153C277.338 227.753 246.684 218.085 248.372 206.581C248.584 205.1 249.229 199.547 250.356 193.531C250.485 192.81 250.613 192.121 250.742 191.399C252.894 185.396 263.734 180.172 279.393 176.778C291.818 180.462 306.974 186.343 322.922 186.504C338.6 186.665 354.883 181.203 368.107 177.422C383.263 181.132 392.95 186.626 393.446 192.758C393.35 193.576 393.253 194.401 393.163 195.187V195.251C392.487 201.306 391.579 206.691 391.379 208.043Z" fill="#FDCD01"/>
<path d="M391.379 208.043C389.691 219.534 356.307 228.552 316.822 228.153C277.338 227.753 246.684 218.085 248.372 206.581C248.584 205.1 249.229 199.547 250.356 193.531C250.485 192.81 250.613 192.121 250.742 191.399C252.894 185.396 263.734 180.172 279.393 176.778C291.818 180.462 306.974 186.343 322.922 186.504C338.6 186.665 354.883 181.203 368.107 177.422C383.263 181.132 392.95 186.626 393.446 192.758C393.35 193.576 393.253 194.401 393.163 195.187V195.251C392.487 201.306 391.579 206.691 391.379 208.043Z" fill="url(#paint11_linear_26_234)"/>
<path d="M393.408 194.169C393.362 194.516 393.28 194.857 393.163 195.187V195.251C389.646 206.201 357.092 214.639 318.864 214.246C280.307 213.853 250.175 204.655 250.362 193.531C250.351 193.258 250.366 192.984 250.407 192.713C250.476 192.273 250.591 191.842 250.748 191.425C252.9 185.422 263.74 180.198 279.399 176.804C292.081 174.04 307.946 172.456 324.964 172.63C341.472 172.797 356.422 174.594 368.12 177.448C383.276 181.158 392.963 186.652 393.459 192.784C393.504 193.246 393.487 193.712 393.408 194.169Z" fill="#FDCD01"/>
<path d="M379.862 192.72C379.818 193.004 379.749 193.285 379.656 193.557V193.609C376.777 202.581 350.129 209.48 318.812 209.164C287.251 208.842 262.555 201.312 262.71 192.198C262.705 191.983 262.718 191.767 262.748 191.554C262.803 191.187 262.896 190.826 263.025 190.478C264.79 185.564 273.666 181.287 286.491 178.504C296.88 176.237 309.866 174.942 323.804 175.084C337.331 175.219 349.569 176.694 359.141 179.032C371.553 182.066 379.488 186.568 379.894 191.586C379.93 191.964 379.919 192.345 379.862 192.72Z" fill="url(#paint12_linear_26_234)"/>
<path d="M305.936 202.375C304.321 202.363 302.708 202.258 301.105 202.059C299.783 201.895 298.473 201.646 297.183 201.312C296.207 201.073 295.256 200.743 294.342 200.327C293.179 199.803 292.124 199.067 291.231 198.156C290.491 197.377 289.803 196.551 289.17 195.683L282.291 186.208L283.122 186.117C283.748 186.591 284.429 186.987 285.151 187.296C286.545 187.913 288.066 188.193 289.589 188.114C290.263 188.114 291.036 188.082 291.907 188.018C292.771 187.966 293.672 187.902 294.6 187.818C295.527 187.734 296.442 187.638 297.331 187.535L300.513 187.193L304.912 186.723C306.505 186.555 308.135 186.375 309.801 186.182L314.638 185.634L319.057 185.138L322.728 184.72C323.952 184.587 325.2 184.441 326.471 184.282C327.742 184.123 329.213 183.951 330.883 183.766C331.888 183.65 332.893 183.528 333.91 183.393C334.928 183.258 335.888 183.116 336.802 182.961C337.717 182.807 338.516 182.659 339.224 182.51C339.721 182.429 340.204 182.279 340.661 182.066C341.35 181.692 341.749 181.345 341.859 181.035C341.956 180.622 341.909 180.187 341.723 179.805L342.561 179.708L349.279 188.964C349.745 189.579 350.107 190.267 350.348 191C350.56 191.645 350.542 192.344 350.297 192.977C349.917 194.034 348.867 194.987 347.134 195.837C345.401 196.687 342.876 197.299 339.54 197.673C336.306 198.102 333.026 198.048 329.807 197.512C327.407 197.151 325.108 196.293 323.057 194.993L322.722 195.032C322.981 195.716 322.964 196.473 322.677 197.145C322.293 197.993 321.668 198.71 320.88 199.206C319.75 199.96 318.515 200.541 317.215 200.932C315.379 201.495 313.49 201.873 311.579 202.059C309.706 202.28 307.822 202.385 305.936 202.375ZM344.158 192.977C345.988 192.262 347.121 191.509 347.566 190.704C348.074 189.757 347.868 188.636 346.922 187.354C346.648 186.982 346.338 186.639 345.994 186.33C345.712 186.076 345.398 185.859 345.06 185.686L344.1 185.731C343.81 185.731 343.456 185.77 343.031 185.808L341.466 185.956L339.018 186.188C337.086 186.394 334.909 186.62 332.577 186.878L325.898 187.618L320.558 188.224L317.891 188.526L319.005 190.066C319.258 190.419 319.533 190.754 319.83 191.071C321.307 192.69 323.63 193.778 326.799 194.336C330.252 194.905 333.769 194.972 337.24 194.536C339.603 194.309 341.927 193.785 344.158 192.977ZM312.687 198.175C313.85 197.883 314.988 197.495 316.088 197.016C316.925 196.665 317.702 196.187 318.394 195.599C318.895 195.185 319.263 194.631 319.45 194.008C319.55 193.581 319.525 193.134 319.379 192.72C319.177 192.216 318.909 191.741 318.58 191.309L316.648 188.649L311.315 189.254L306.226 189.828C304.667 190.008 303.237 190.169 301.943 190.33C300.648 190.491 299.521 190.62 298.574 190.723C296.468 190.981 294.761 191.212 293.421 191.412C292.364 191.54 291.327 191.802 290.336 192.191C289.898 192.375 289.538 192.705 289.318 193.125C289.144 193.505 289.279 194.008 289.73 194.626C290.198 195.247 290.731 195.815 291.321 196.32C292.232 197.046 293.273 197.593 294.387 197.931C296.385 198.605 298.461 199.021 300.564 199.167C303.141 199.348 305.73 199.281 308.294 198.968C309.775 198.808 311.243 198.544 312.687 198.175Z" fill="#FDCD01"/>
<path d="M346.458 186.865L345.234 185.177L357.137 183.824L358.361 185.512L346.458 186.865Z" fill="#FDCD01"/>
<path d="M348.957 190.298L347.733 188.61L359.636 187.264L360.86 188.952L348.957 190.298Z" fill="#FDCD01"/>
<path d="M275.946 194.845L274.723 193.158L286.626 191.812L287.85 193.499L275.946 194.845Z" fill="#FDCD01"/>
<path d="M278.446 198.285L277.222 196.597L289.125 195.251L290.349 196.939L278.446 198.285Z" fill="#FDCD01"/>
<path d="M268.455 179.915L357.987 210.485C357.987 210.485 379.024 207.908 384.396 201.95L296.223 173.712C296.223 173.712 270.793 178.085 268.455 179.915Z" fill="url(#paint13_linear_26_234)"/>
<path d="M263.554 136.346C263.554 136.346 259.463 140.997 257.995 144.804C256.526 148.61 248.668 161.377 248.668 161.377L236.81 157.944C235.458 159.318 234.701 161.169 234.704 163.097C234.704 163.097 247.451 170.446 250.542 169.937C253.634 169.428 261.042 160.675 261.042 160.675" fill="#68E1FD"/>
<path d="M263.554 136.346C263.554 136.346 259.463 140.997 257.995 144.804C256.526 148.61 248.668 161.377 248.668 161.377L236.81 157.944C235.458 159.318 234.701 161.169 234.704 163.097C234.704 163.097 247.451 170.446 250.542 169.937C253.634 169.428 261.042 160.675 261.042 160.675" fill="url(#paint14_linear_26_234)"/>
<path d="M274.42 256.623L274.806 262.014C273.873 262.57 272.791 262.822 271.708 262.735C270.065 262.529 266.787 259.16 265.995 259.328V257.724" fill="#C58067"/>
<path d="M255.245 252.777L255.631 258.169C254.698 258.725 253.615 258.977 252.533 258.89C250.89 258.677 247.612 255.315 246.826 255.476V253.872" fill="#C58067"/>
<path d="M250.542 185.493C250.542 185.493 244.745 217.744 244.983 218.413C245.222 219.083 246.594 254.484 246.594 254.484C246.594 254.484 250.285 256.97 255.476 254.484L256.294 218.974L261.512 190.794C261.512 190.794 253.164 184.565 250.542 185.493Z" fill="#606161"/>
<path d="M250.542 185.493C250.542 185.493 244.745 217.744 244.983 218.413C245.222 219.083 246.594 254.484 246.594 254.484C246.594 254.484 250.285 256.97 255.476 254.484L256.294 218.974L261.512 190.794C261.512 190.794 253.164 184.565 250.542 185.493Z" fill="url(#paint15_linear_26_234)"/>
<path d="M256.61 184.321C256.61 184.321 259.489 222.697 259.831 223.328C260.172 223.96 266.008 258.246 266.008 258.246C266.008 258.246 270.104 260.868 274.929 257.724L271.116 222.401L272.887 188.72C272.887 188.72 259.084 183.065 256.61 184.321Z" fill="#606161"/>
<path d="M256.61 184.321C256.61 184.321 259.489 222.697 259.831 223.328C260.172 223.96 266.008 258.246 266.008 258.246C266.008 258.246 270.104 260.868 274.929 257.724L271.116 222.401L272.887 188.72C272.887 188.72 259.084 183.065 256.61 184.321Z" fill="url(#paint16_linear_26_234)"/>
<path d="M275.631 150.427C274.864 144.817 277.724 143.528 277.08 142.975C277.016 142.884 274.04 140.752 273.924 140.694C273.924 140.694 268.771 136.186 266.259 136.495C263.747 136.804 261.222 139.013 260.281 142.156C259.341 145.3 257.84 147.367 256.584 150.826C255.328 154.285 256.584 160.263 254.935 167.322C253.647 172.849 250.517 185.493 250.517 185.493C250.517 185.493 261.17 193.712 264.687 194.066C268.075 194.455 271.494 194.499 274.89 194.195C274.89 194.195 273.859 182.82 273.254 177.796C272.648 172.771 276.571 157.351 275.631 150.427Z" fill="#68E1FD"/>
<path d="M257.254 179.541C258.175 176.218 260.346 173.055 263.566 171.812C264.243 171.554 265.022 171.329 265.344 170.691C265.505 170.282 265.571 169.841 265.537 169.403C265.589 166.35 267.019 163.516 268.114 160.669C269.209 157.822 270.046 154.575 268.835 151.76C266.259 152.791 264.777 155.509 262.536 157.158C262.079 157.539 261.513 157.765 260.919 157.802C259.573 157.802 258.813 156.308 258.342 155.052C257.872 153.796 256.971 152.334 255.631 152.475C255.103 154.163 255.631 155.967 255.908 157.712C257.151 165.776 252.726 173.499 250.993 181.467C250.735 182.652 250.549 183.953 251.09 185.036C251.579 186.015 255.251 188.971 256.378 188.295C257.022 187.973 256.906 180.797 257.254 179.541Z" fill="url(#paint17_linear_26_234)"/>
<path d="M276.281 160.018C275.412 163.052 274.143 166.086 271.927 168.327C269.164 171.161 265.209 172.482 261.299 173.158C257.492 173.714 253.649 173.996 249.802 174.002C245.544 174.098 241.293 174.227 237.035 174.324C236.391 174.324 235.567 174.272 235.29 173.68C235.212 173.375 235.245 173.053 235.381 172.77C235.518 172.488 235.75 172.262 236.037 172.134C236.61 171.812 237.261 171.709 237.782 171.361C238.749 170.717 239.103 169.474 239.973 168.701C240.99 167.831 243.753 166.388 245.125 166.388C248.648 166.352 252.165 166.076 255.65 165.564C256.83 165.507 257.984 165.201 259.038 164.668C260.153 164.024 260.726 164.417 261.428 163.322C262.687 161.334 263.765 159.237 264.649 157.055C266.117 153.422 268.578 141.203 273.956 141.351C280.713 141.551 277.299 156.553 276.281 160.018Z" fill="#68E1FD"/>
<path d="M259.296 118.743C258.652 120.353 258.845 121.319 258.42 123.013C258.22 123.953 257.775 124.824 257.132 125.538C256.43 126.266 257.067 127.471 257.19 128.372C257.396 129.963 255.257 133.293 258.716 133.834C262.175 134.375 264.449 137.499 264.893 140.366C265.735 140.7 266.659 140.767 267.541 140.559C268.422 140.35 269.218 139.876 269.821 139.2C271.869 136.817 268.024 131.303 267.695 126.872C267.367 122.44 266.813 118.562 264.771 119.265C261.396 120.43 260.05 116.901 259.296 118.743Z" fill="url(#paint18_linear_26_234)"/>
<path d="M237.054 158.652C237.054 158.652 235.521 156.778 234.046 156.591C232.571 156.404 227.605 155.664 227.856 156.868C228.108 158.073 227.161 159.78 227.856 160.765C228.552 161.751 230.935 161.97 231.792 162.105C232.649 162.24 235.225 162.665 235.225 162.665" fill="#C58067"/>
<path d="M233.734 152.906L230.619 152.597C230.13 152.548 229.695 152.905 229.646 153.393L228.792 162.001C228.743 162.49 229.1 162.925 229.588 162.974L232.703 163.283C233.192 163.332 233.627 162.975 233.676 162.486L234.53 153.878C234.579 153.39 234.222 152.954 233.734 152.906Z" fill="white"/>
<path d="M240.526 260.41C240.492 260.576 240.502 260.747 240.556 260.908C240.609 261.068 240.703 261.212 240.829 261.325C240.969 261.4 241.127 261.436 241.286 261.428C245.163 261.562 249.043 261.346 252.88 260.784C253.705 260.756 254.49 260.423 255.083 259.85C255.689 259.122 255.695 258.033 255.637 257.054C255.642 256.888 255.609 256.723 255.541 256.571C255.44 256.442 255.308 256.341 255.156 256.278C255.005 256.215 254.84 256.191 254.678 256.211L249.679 255.979C248.468 255.914 247.174 255.399 245.988 255.438C243.889 255.508 240.726 258.059 240.526 260.41Z" fill="#606161"/>
<path d="M260.062 263.824C260.028 263.99 260.037 264.162 260.089 264.324C260.141 264.485 260.234 264.63 260.359 264.745C260.502 264.816 260.662 264.849 260.822 264.842C264.699 264.973 268.579 264.757 272.417 264.197C273.243 264.167 274.029 263.835 274.626 263.263C275.231 262.536 275.231 261.447 275.18 260.468C275.185 260.299 275.15 260.131 275.077 259.978C274.976 259.85 274.843 259.749 274.692 259.686C274.541 259.623 274.376 259.599 274.214 259.618C272.552 259.54 270.884 259.476 269.222 259.386C268.004 259.321 266.716 258.806 265.531 258.845C263.425 258.922 260.256 261.473 260.062 263.824Z" fill="#606161"/>
<path d="M96.7397 165.428L245.293 121.983L250.896 138.453L101.996 180.668L96.7397 165.428Z" fill="url(#paint19_linear_26_234)"/>
<path d="M255.18 155.857C255.18 167.484 223.451 181.235 184.327 186.562C145.203 191.889 113.474 186.768 113.474 175.142C113.474 173.648 113.306 168.057 113.545 161.944C113.545 161.21 113.596 160.508 113.622 159.773C114.878 153.526 124.849 146.788 139.851 141.158C152.675 143.001 168.527 146.621 184.295 144.476C199.831 142.357 215.148 134.595 227.689 128.933C243.225 130.408 253.602 134.447 254.98 140.437C254.98 141.262 255.032 142.092 255.057 142.885V142.949C255.27 149.036 255.18 154.479 255.18 155.857Z" fill="#FDCD01"/>
<path d="M255.18 155.857C255.18 167.484 223.451 181.235 184.327 186.562C145.203 191.889 113.474 186.768 113.474 175.142C113.474 173.648 113.306 168.057 113.545 161.944C113.545 161.21 113.596 160.508 113.622 159.773C114.878 153.526 124.849 146.788 139.851 141.158C152.675 143.001 168.527 146.621 184.295 144.476C199.831 142.357 215.148 134.595 227.689 128.933C243.225 130.408 253.602 134.447 254.98 140.437C254.98 141.262 255.032 142.092 255.057 142.885V142.949C255.27 149.036 255.18 154.479 255.18 155.857Z" fill="url(#paint20_linear_26_234)"/>
<path d="M255.18 141.841C255.181 142.191 255.149 142.54 255.083 142.884V142.949C253.17 154.305 222.195 167.361 184.327 172.514C146.118 177.712 114.975 172.984 113.545 161.95C113.498 161.678 113.475 161.402 113.474 161.126C113.476 160.673 113.526 160.222 113.622 159.78C114.878 153.532 124.849 146.794 139.851 141.165C151.999 136.585 167.464 132.72 184.295 130.427C200.655 128.198 215.708 127.812 227.689 128.939C243.225 130.414 253.602 134.453 254.98 140.443C255.107 140.898 255.174 141.368 255.18 141.841Z" fill="#FDCD01"/>
<path d="M241.531 142.369C241.533 142.657 241.507 142.943 241.454 143.226V143.277C239.908 152.579 214.542 163.245 183.483 167.49C152.185 171.747 126.685 167.87 125.513 158.833C125.476 158.62 125.456 158.405 125.455 158.189C125.456 157.817 125.494 157.445 125.571 157.081C126.601 151.967 134.769 146.447 147.058 141.835C157.003 138.086 169.667 134.923 183.483 133.042C196.881 131.22 209.203 130.904 219.013 131.825C231.74 133.036 240.236 136.334 241.37 141.249C241.47 141.614 241.524 141.99 241.531 142.369Z" fill="url(#paint21_linear_26_234)"/>
<path d="M169.789 162.633C168.19 162.86 166.579 162.989 164.965 163.019C163.631 163.05 162.297 162.994 160.971 162.852C159.973 162.756 158.985 162.568 158.021 162.291C156.794 161.939 155.643 161.362 154.626 160.591C153.786 159.924 152.986 159.208 152.23 158.446L144.05 150.073L144.862 149.86C145.55 150.237 146.281 150.531 147.039 150.736C148.509 151.14 150.052 151.197 151.548 150.903C152.192 150.788 152.978 150.646 153.828 150.472C154.678 150.298 155.554 150.098 156.469 149.879C157.383 149.66 158.259 149.435 159.129 149.235L162.227 148.43L166.51 147.329C168.056 146.929 169.647 146.517 171.27 146.085L175.953 144.817L180.256 143.683L183.831 142.743L187.47 141.763C188.7 141.429 190.137 141.042 191.76 140.617C192.73 140.359 193.709 140.089 194.697 139.805C195.683 139.528 196.629 139.245 197.492 138.962C198.356 138.678 199.154 138.414 199.824 138.163C200.305 138.014 200.763 137.797 201.183 137.519C201.827 137.049 202.156 136.656 202.22 136.334C202.258 135.909 202.149 135.483 201.911 135.129L202.723 134.917L210.736 143.084C211.282 143.629 211.739 144.257 212.088 144.945C212.39 145.554 212.472 146.248 212.32 146.91C212.101 148.005 211.197 149.1 209.608 150.195C208.02 151.29 205.604 152.265 202.362 153.119C199.22 154.008 195.965 154.429 192.7 154.369C190.272 154.355 187.873 153.839 185.654 152.855L185.332 152.939C185.684 153.58 185.779 154.331 185.596 155.039C185.334 155.932 184.82 156.731 184.114 157.338C183.103 158.246 181.964 158.999 180.733 159.573C178.997 160.394 177.185 161.041 175.322 161.506C173.502 161.994 171.655 162.37 169.789 162.633ZM206.246 147.818C207.959 146.846 208.964 145.931 209.286 145.074C209.66 144.065 209.293 142.992 208.185 141.854C207.862 141.524 207.505 141.228 207.122 140.971C206.803 140.756 206.459 140.58 206.098 140.449L205.157 140.636L204.108 140.868L202.587 141.242L200.198 141.828C198.287 142.313 196.191 142.85 193.911 143.438C191.631 144.026 189.462 144.595 187.406 145.145L182.214 146.517L179.638 147.2L180.964 148.559C181.261 148.874 181.579 149.166 181.918 149.435C183.61 150.822 186.068 151.563 189.293 151.657C192.789 151.729 196.278 151.295 199.65 150.369C201.941 149.791 204.151 148.928 206.227 147.799L206.246 147.818ZM175.857 157.506C176.973 157.047 178.05 156.498 179.077 155.863C179.855 155.393 180.557 154.806 181.158 154.124C181.594 153.642 181.876 153.041 181.969 152.398C182.008 151.953 181.919 151.506 181.712 151.11C181.44 150.636 181.104 150.203 180.713 149.821L178.414 147.464L173.222 148.836L168.269 150.124L164.101 151.238C162.813 151.586 161.75 151.883 160.829 152.121C158.787 152.681 157.126 153.151 155.837 153.544C154.812 153.827 153.825 154.236 152.9 154.762C152.495 155 152.187 155.375 152.031 155.818C151.915 156.217 152.121 156.688 152.675 157.242C153.231 157.784 153.842 158.268 154.498 158.684C155.505 159.268 156.613 159.659 157.763 159.837C159.838 160.215 161.954 160.323 164.056 160.159C166.64 159.978 169.201 159.546 171.702 158.871C173.116 158.51 174.504 158.053 175.857 157.506Z" fill="#FDCD01"/>
<path d="M207.638 141.416L206.182 139.922L217.763 136.862L219.219 138.356L207.638 141.416Z" fill="#FDCD01"/>
<path d="M210.607 144.456L209.151 142.962L220.732 139.902L222.188 141.396L210.607 144.456Z" fill="#FDCD01"/>
<path d="M139.026 159.535L137.57 158.041L149.152 154.981L150.614 156.475L139.026 159.535Z" fill="#FDCD01"/>
<path d="M141.995 162.575L140.54 161.081L152.121 158.021L153.583 159.516L141.995 162.575Z" fill="#FDCD01"/>
<path d="M129.454 145.841L222.458 163.116C222.458 163.116 242.896 157.532 247.328 150.878L156.024 135.683C156.024 135.683 131.509 143.696 129.454 145.841Z" fill="url(#paint22_linear_26_234)"/>
<path d="M211.567 264.623C209.885 276.127 176.501 285.131 137.01 284.732C97.5192 284.333 66.8721 274.664 68.5596 263.161C68.7786 261.685 69.4163 256.127 70.5435 250.117C70.6724 249.389 70.8012 248.7 70.93 247.979C73.0813 241.975 83.9218 236.758 99.5803 233.357C112.005 237.042 127.161 242.922 143.11 243.09C158.788 243.244 175.071 237.782 188.295 234.001C203.451 237.711 213.138 243.206 213.634 249.338C213.538 250.156 213.441 250.98 213.351 251.772V251.837C212.668 257.885 211.766 263.276 211.567 264.623Z" fill="#FDCD01"/>
<path d="M211.567 264.623C209.885 276.127 176.501 285.131 137.01 284.732C97.5192 284.333 66.8721 274.664 68.5596 263.161C68.7786 261.685 69.4163 256.127 70.5435 250.117C70.6724 249.389 70.8012 248.7 70.93 247.979C73.0813 241.975 83.9218 236.758 99.5803 233.357C112.005 237.042 127.161 242.922 143.11 243.09C158.788 243.244 175.071 237.782 188.295 234.001C203.451 237.711 213.138 243.206 213.634 249.338C213.538 250.156 213.441 250.98 213.351 251.772V251.837C212.668 257.885 211.766 263.276 211.567 264.623Z" fill="url(#paint23_linear_26_234)"/>
<path d="M213.602 250.755C213.551 251.101 213.467 251.442 213.351 251.772V251.837C209.834 262.787 177.28 271.218 139.052 270.825C100.495 270.432 70.3634 261.241 70.5502 250.117C70.5427 249.841 70.5578 249.566 70.5953 249.292C70.6653 248.853 70.7796 248.421 70.9367 248.004C73.088 242.001 83.9285 236.784 99.587 233.383C112.276 230.619 128.134 229.035 145.152 229.209C161.661 229.376 176.611 231.141 188.308 234.027C203.464 237.737 213.151 243.231 213.647 249.363C213.691 249.827 213.676 250.295 213.602 250.755Z" fill="#FDCD01"/>
<path d="M200.05 249.305C200.008 249.588 199.939 249.867 199.844 250.136V250.188C196.965 259.167 170.318 266.065 139.001 265.743C107.439 265.421 82.7433 257.891 82.8979 248.784C82.8913 248.558 82.9043 248.331 82.9366 248.107C82.9924 247.74 83.0852 247.38 83.2135 247.032C84.9784 242.117 93.8543 237.84 106.679 235.058C117.068 232.79 130.054 231.496 143.992 231.637C157.519 231.779 169.757 233.248 179.329 235.586C191.747 238.626 199.676 243.122 200.082 248.146C200.12 248.532 200.109 248.922 200.05 249.305Z" fill="url(#paint24_linear_26_234)"/>
<path d="M126.131 258.954C124.514 258.946 122.898 258.84 121.294 258.639C119.971 258.474 118.661 258.225 117.371 257.891C116.395 257.652 115.444 257.322 114.53 256.906C113.366 256.384 112.311 255.648 111.419 254.735C110.682 253.954 109.993 253.128 109.358 252.262L102.479 242.793L103.316 242.697C103.942 243.171 104.624 243.566 105.345 243.875C106.739 244.489 108.256 244.771 109.777 244.7C110.453 244.7 111.226 244.648 112.096 244.597C112.965 244.545 113.861 244.481 114.795 244.397C115.729 244.313 116.63 244.217 117.519 244.12L120.701 243.772L125.1 243.302C126.689 243.135 128.319 242.957 129.989 242.768L134.827 242.22L139.252 241.718L142.923 241.299C144.141 241.164 145.39 241.016 146.659 240.861L151.071 240.346C152.076 240.236 153.081 240.114 154.099 239.979C155.116 239.843 156.076 239.695 156.991 239.547C157.905 239.399 158.71 239.238 159.413 239.09C159.91 239.009 160.393 238.859 160.849 238.645C161.536 238.272 161.935 237.93 162.047 237.621C162.141 237.206 162.096 236.771 161.918 236.384L162.749 236.294L169.467 245.544C169.933 246.16 170.296 246.847 170.543 247.579C170.749 248.228 170.729 248.927 170.485 249.563C170.111 250.613 169.055 251.566 167.329 252.416C165.603 253.267 163.065 253.879 159.728 254.259C156.494 254.681 153.214 254.627 149.996 254.098C147.596 253.73 145.299 252.873 143.245 251.579L142.917 251.611C143.169 252.298 143.153 253.055 142.872 253.73C142.48 254.574 141.856 255.288 141.075 255.792C139.942 256.542 138.704 257.121 137.403 257.511C135.567 258.075 133.679 258.453 131.767 258.639C129.897 258.862 128.014 258.967 126.131 258.954ZM164.359 249.557C166.195 248.848 167.322 248.088 167.767 247.283C168.282 246.336 168.069 245.222 167.123 243.94C166.855 243.565 166.546 243.221 166.202 242.916C165.916 242.663 165.6 242.447 165.261 242.272L164.308 242.323C164.012 242.323 163.664 242.362 163.232 242.4L161.673 242.549L159.226 242.78C157.293 242.98 155.11 243.212 152.785 243.463L146.105 244.204L140.765 244.809L138.099 245.112L139.219 246.652C139.468 247.005 139.741 247.341 140.037 247.656C141.51 249.271 143.836 250.36 147.013 250.922C150.463 251.494 153.978 251.561 157.448 251.122C159.809 250.899 162.132 250.372 164.359 249.557ZM132.888 254.755C134.052 254.466 135.189 254.081 136.289 253.602C137.127 253.247 137.907 252.767 138.601 252.178C139.102 251.763 139.47 251.21 139.657 250.587C139.757 250.159 139.73 249.712 139.58 249.299C139.381 248.794 139.112 248.319 138.781 247.888L136.849 245.222L131.509 245.827L126.421 246.407C124.862 246.581 123.439 246.748 122.137 246.903C120.836 247.057 119.716 247.193 118.769 247.302C116.669 247.56 114.951 247.787 113.616 247.985C112.558 248.115 111.521 248.379 110.53 248.771C110.096 248.944 109.739 249.269 109.526 249.685C109.345 250.059 109.481 250.561 109.938 251.18C110.404 251.802 110.937 252.37 111.529 252.874C112.44 253.601 113.48 254.149 114.595 254.491C116.593 255.164 118.669 255.577 120.772 255.721C123.349 255.907 125.937 255.842 128.501 255.528C129.975 255.37 131.436 255.112 132.875 254.755H132.888Z" fill="#FDCD01"/>
<path d="M166.653 243.444L165.422 241.756L177.326 240.41L178.556 242.097L166.653 243.444Z" fill="#FDCD01"/>
<path d="M169.145 246.883L167.922 245.196L179.825 243.843L181.049 245.531L169.145 246.883Z" fill="#FDCD01"/>
<path d="M96.1409 251.431L94.9106 249.743L106.82 248.391L108.044 250.078L96.1409 251.431Z" fill="#FDCD01"/>
<path d="M98.6337 254.871L97.4099 253.177L109.313 251.83L110.537 253.518L98.6337 254.871Z" fill="#FDCD01"/>
<path d="M88.6436 236.494L178.176 267.064C178.176 267.064 199.213 264.487 204.585 258.529L116.411 230.291C116.411 230.291 90.9817 234.665 88.6436 236.494Z" fill="url(#paint25_linear_26_234)"/>
<defs>
<linearGradient id="paint0_linear_26_234" x1="228.417" y1="-8.13544" x2="449.517" y2="458.289" gradientUnits="userSpaceOnUse">
<stop stop-color="white" stop-opacity="0"/>
<stop offset="0.95" stop-color="white"/>
</linearGradient>
<linearGradient id="paint1_linear_26_234" x1="34398.1" y1="-3757.03" x2="85740.8" y2="87184.1" gradientUnits="userSpaceOnUse">
<stop stop-color="white" stop-opacity="0"/>
<stop offset="0.95" stop-color="white"/>
</linearGradient>
<linearGradient id="paint2_linear_26_234" x1="53.7214" y1="69.5335" x2="378.569" y2="263.48" gradientUnits="userSpaceOnUse">
<stop stop-color="#010101" stop-opacity="0"/>
<stop offset="0.95" stop-color="#010101"/>
</linearGradient>
<linearGradient id="paint3_linear_26_234" x1="31191.6" y1="20421.3" x2="100967" y2="81715.8" gradientUnits="userSpaceOnUse">
<stop stop-color="#010101" stop-opacity="0"/>
<stop offset="0.95" stop-color="#010101"/>
</linearGradient>
<linearGradient id="paint4_linear_26_234" x1="14211.1" y1="10386.3" x2="13222" y2="10940.9" gradientUnits="userSpaceOnUse">
<stop stop-color="#010101" stop-opacity="0"/>
<stop offset="0.95" stop-color="#010101"/>
</linearGradient>
<linearGradient id="paint5_linear_26_234" x1="72829.4" y1="23825.5" x2="72930.5" y2="17168.4" gradientUnits="userSpaceOnUse">
<stop stop-color="#010101" stop-opacity="0"/>
<stop offset="0.95" stop-color="#010101"/>
</linearGradient>
<linearGradient id="paint6_linear_26_234" x1="57648.4" y1="10523.7" x2="57933.5" y2="22150.5" gradientUnits="userSpaceOnUse">
<stop stop-color="white" stop-opacity="0"/>
<stop offset="0.95" stop-color="white"/>
</linearGradient>
<linearGradient id="paint7_linear_26_234" x1="60529.5" y1="13469.7" x2="59915" y2="19574.5" gradientUnits="userSpaceOnUse">
<stop stop-color="white" stop-opacity="0"/>
<stop offset="0.95" stop-color="white"/>
</linearGradient>
<linearGradient id="paint8_linear_26_234" x1="71935.6" y1="22107.2" x2="72036.9" y2="15450.2" gradientUnits="userSpaceOnUse">
<stop stop-color="#010101" stop-opacity="0"/>
<stop offset="0.95" stop-color="#010101"/>
</linearGradient>
<linearGradient id="paint9_linear_26_234" x1="56893.8" y1="9379.93" x2="57179.9" y2="21019.1" gradientUnits="userSpaceOnUse">
<stop stop-color="white" stop-opacity="0"/>
<stop offset="0.95" stop-color="white"/>
</linearGradient>
<linearGradient id="paint10_linear_26_234" x1="59796.1" y1="12231.1" x2="59181.5" y2="18336.2" gradientUnits="userSpaceOnUse">
<stop stop-color="white" stop-opacity="0"/>
<stop offset="0.95" stop-color="white"/>
</linearGradient>
<linearGradient id="paint11_linear_26_234" x1="67836.5" y1="21449.6" x2="67937.6" y2="14791.6" gradientUnits="userSpaceOnUse">
<stop stop-color="#010101" stop-opacity="0"/>
<stop offset="0.95" stop-color="#010101"/>
</linearGradient>
<linearGradient id="paint12_linear_26_234" x1="53569.5" y1="8913.56" x2="53854.9" y2="20543.9" gradientUnits="userSpaceOnUse">
<stop stop-color="white" stop-opacity="0"/>
<stop offset="0.95" stop-color="white"/>
</linearGradient>
<linearGradient id="paint13_linear_26_234" x1="56512.1" y1="11743" x2="55897.9" y2="17846.6" gradientUnits="userSpaceOnUse">
<stop stop-color="white" stop-opacity="0"/>
<stop offset="0.95" stop-color="white"/>
</linearGradient>
<linearGradient id="paint14_linear_26_234" x1="11734.9" y1="8896.67" x2="12150.6" y2="9253.41" gradientUnits="userSpaceOnUse">
<stop stop-color="#010101" stop-opacity="0"/>
<stop offset="0.95" stop-color="#010101"/>
</linearGradient>
<linearGradient id="paint15_linear_26_234" x1="7002.58" y1="25711.6" x2="6588.05" y2="25698.7" gradientUnits="userSpaceOnUse">
<stop stop-color="#010101" stop-opacity="0"/>
<stop offset="0.95" stop-color="#010101"/>
</linearGradient>
<linearGradient id="paint16_linear_26_234" x1="7606.44" y1="27484.9" x2="8127.06" y2="27484.9" gradientUnits="userSpaceOnUse">
<stop stop-color="#010101" stop-opacity="0"/>
<stop offset="0.95" stop-color="#010101"/>
</linearGradient>
<linearGradient id="paint17_linear_26_234" x1="7412.46" y1="10042.5" x2="10280.3" y2="10772.5" gradientUnits="userSpaceOnUse">
<stop stop-color="#010101" stop-opacity="0"/>
<stop offset="0.95" stop-color="#010101"/>
</linearGradient>
<linearGradient id="paint18_linear_26_234" x1="256.745" y1="129.435" x2="270.433" y2="129.435" gradientUnits="userSpaceOnUse">
<stop stop-color="#E5C6D6"/>
<stop offset="0.42" stop-color="#EAD4D0"/>
<stop offset="1" stop-color="#F0E9CB"/>
</linearGradient>
<linearGradient id="paint19_linear_26_234" x1="38739.2" y1="9386.08" x2="39505.5" y2="17573.9" gradientUnits="userSpaceOnUse">
<stop stop-color="#010101" stop-opacity="0"/>
<stop offset="0.95" stop-color="#010101"/>
</linearGradient>
<linearGradient id="paint20_linear_26_234" x1="39175.1" y1="15167.1" x2="38156.5" y2="7499.58" gradientUnits="userSpaceOnUse">
<stop stop-color="#010101" stop-opacity="0"/>
<stop offset="0.95" stop-color="#010101"/>
</linearGradient>
<linearGradient id="paint21_linear_26_234" x1="29676.8" y1="2815.22" x2="31925.7" y2="15525.4" gradientUnits="userSpaceOnUse">
<stop stop-color="white" stop-opacity="0"/>
<stop offset="0.95" stop-color="white"/>
</linearGradient>
<linearGradient id="paint22_linear_26_234" x1="34110.8" y1="2319.02" x2="34393.4" y2="6882.64" gradientUnits="userSpaceOnUse">
<stop stop-color="white" stop-opacity="0"/>
<stop offset="0.95" stop-color="white"/>
</linearGradient>
<linearGradient id="paint23_linear_26_234" x1="28710.3" y1="25228.7" x2="28811.6" y2="18570.7" gradientUnits="userSpaceOnUse">
<stop stop-color="#010101" stop-opacity="0"/>
<stop offset="0.95" stop-color="#010101"/>
</linearGradient>
<linearGradient id="paint24_linear_26_234" x1="22042.4" y1="11262.8" x2="22328.7" y2="22902.1" gradientUnits="userSpaceOnUse">
<stop stop-color="white" stop-opacity="0"/>
<stop offset="0.95" stop-color="white"/>
</linearGradient>
<linearGradient id="paint25_linear_26_234" x1="25283.3" y1="14355.6" x2="24668.9" y2="20459.3" gradientUnits="userSpaceOnUse">
<stop stop-color="white" stop-opacity="0"/>
<stop offset="0.95" stop-color="white"/>
</linearGradient>
</defs>
</svg>
