<svg width="368" height="306" viewBox="0 0 368 306" fill="none" xmlns="http://www.w3.org/2000/svg">
<g clip-path="url(#clip0_24_3)">
<path d="M296.604 265.563C299.472 266.334 302.641 267.442 303.925 270.11C306.932 276.374 297.393 280.827 290.472 281.215C219.232 285.233 147.776 282.928 76.9427 274.326C68.8821 273.342 59.8882 271.745 55.1846 265.125C63.4331 254.252 79.0972 253.338 92.707 253.338C160.693 253.45 230.421 247.507 296.604 265.563Z" fill="url(#paint0_linear_24_3)"/>
<path d="M291.775 179.978L266.991 194.464L263.503 193.519C253.676 190.8 226.325 182.959 223.863 179.019C220.857 174.216 210.022 151.587 210.022 151.587L215.076 135.929L221.058 117.384C221.058 117.384 244.281 155.013 248.484 157.418C252.686 159.823 291.775 179.978 291.775 179.978Z" fill="#68E1FD"/>
<path d="M130.048 219.473C130.048 219.473 122.307 208.826 112.962 214.137C103.617 219.448 96.9535 261.11 107.626 268.852C118.298 276.593 128.977 253.369 128.977 253.369L130.048 219.473Z" fill="#68E1FD"/>
<path d="M130.048 219.473C130.048 219.473 122.307 208.826 112.962 214.137C103.617 219.448 96.9535 261.11 107.626 268.852C118.298 276.593 128.977 253.369 128.977 253.369L130.048 219.473Z" fill="url(#paint1_linear_24_3)"/>
<path d="M158.407 278.722C158.407 278.722 124.173 252.304 122.977 247.501C121.781 242.697 116.971 231.887 122.351 224.678C127.731 217.469 139.161 219.273 139.161 219.273C139.161 219.273 164.408 249.899 158.407 278.722Z" fill="#68E1FD"/>
<path d="M158.407 278.722C158.407 278.722 124.173 252.304 122.977 247.501C121.781 242.697 116.971 231.887 122.351 224.678C127.731 217.469 139.161 219.273 139.161 219.273C139.161 219.273 164.408 249.899 158.407 278.722Z" fill="#3F3D56"/>
<path d="M261.098 275.121C255.092 281.134 229.864 281.134 224.459 276.324C219.053 271.513 208.043 270.117 208.65 258.705L212.051 253.695L211.425 253.532L208.08 252.655L205.87 229.882L184.976 235.945L181.042 237.079L178.637 201.228C178.637 201.228 217.269 179.627 232.288 182.639C247.307 185.652 242.496 220.469 243.098 222.273C243.53 223.525 243.649 238.187 244.977 248.052C245.177 249.499 240.849 250.106 241.093 251.296C241.544 253.388 246.636 255.724 247.3 256.494C250.883 260.71 267.098 269.115 261.098 275.121Z" fill="#3F3D56"/>
<path d="M226.131 253.369L211.406 253.538L208.062 252.661L205.851 229.889L184.957 235.951L184.763 235.751L183.698 214.669C183.698 214.669 214.118 203.189 218.145 204.798C222.172 206.408 226.131 253.369 226.131 253.369Z" fill="url(#paint2_linear_24_3)"/>
<path d="M209.59 185.765L215.452 199.475L133.186 207.861C125.044 208.406 124.517 193.093 125.438 182.877C125.588 181.236 125.776 179.746 125.977 178.443C128.664 161.044 133.555 137.57 137.501 120.002C140.313 107.475 142.662 97.968 143.395 95.7634C145.793 88.5545 172.205 88.1599 172.205 88.1599C172.343 88.1599 172.487 88.1599 172.618 88.1599C199.656 86.5002 221.051 117.409 221.051 117.409L210.742 153.109L204.642 174.241L205.638 176.558L206.552 178.712L209.59 185.765Z" fill="#68E1FD"/>
<path d="M154.731 204.285C155.532 202.562 157.505 201.78 159.271 201.109C162.771 199.742 166.127 198.035 169.293 196.011C170.242 195.315 171.3 194.779 172.424 194.427C173.398 194.241 174.403 194.301 175.348 194.599C176.294 194.897 177.151 195.426 177.842 196.137C183.817 202.011 175.963 201.961 171.447 202.544C169.549 202.794 155.276 203.12 154.731 204.285Z" fill="url(#paint3_linear_24_3)"/>
<path d="M210.749 153.128L204.648 174.259L205.644 176.577C205.758 177.039 205.919 177.488 206.126 177.917C206.264 178.199 206.402 178.468 206.558 178.731C207.736 180.71 209.49 182.489 209.646 184.731C209.668 185.085 209.649 185.44 209.59 185.79C209.227 188.201 207.085 190.174 205.118 191.771C203.151 193.368 201.128 195.003 198.698 195.704C194.972 196.782 190.882 195.435 187.782 193.111C184.681 190.788 182.383 187.575 180.109 184.399C178.681 182.395 177.184 180.203 177.184 177.742C177.242 176.498 177.526 175.275 178.024 174.134C180.792 166.994 185.884 161.044 190.882 155.245L209.145 134.05C209.771 133.298 210.567 132.484 211.563 132.453C212.865 132.409 213.767 133.706 214.412 134.82L215.039 135.929L209.984 151.587C209.984 151.587 210.285 152.157 210.749 153.128Z" fill="url(#paint4_linear_24_3)"/>
<path d="M263.503 193.537C253.676 190.819 226.325 182.978 223.863 179.038C220.857 174.234 210.022 151.606 210.022 151.606L215.076 135.948L231.116 163.863C233.446 167.915 235.857 172.074 239.496 175.011C241.958 176.996 244.864 178.324 247.745 179.639C250.626 180.955 269.747 187.575 263.503 193.537Z" fill="url(#paint5_linear_24_3)"/>
<path d="M178.067 200.27C166.211 184.844 133.543 189.04 132.973 189.623C130.655 192.128 134.225 199.719 134.971 203.032C135.296 204.485 141.09 205.707 140.557 207.084L133.173 207.836C123.779 208.462 124.518 187.744 125.964 178.399C127.743 166.875 130.493 152.677 133.292 139.305C133.687 138.816 134.1 138.353 134.545 137.896C137.633 134.658 144.716 130.574 149.414 132.647C155.677 135.409 151.261 142.173 149.702 147.365C149.192 148.696 148.978 150.121 149.075 151.543C149.307 153.259 150.422 154.675 151.543 156.034C155.411 160.598 159.829 164.666 164.696 168.147C167.727 170.307 171.015 172.33 172.994 175.474C177.554 182.733 173.577 193.017 178.067 200.27Z" fill="url(#paint6_linear_24_3)"/>
<path d="M277.107 176.213L318.919 197.915C318.919 197.915 320.798 201.172 319.658 204.285C318.518 207.398 314.648 213.748 308.917 212.627C303.186 211.506 267.217 192.247 267.217 192.247L277.107 176.213Z" fill="#68E1FD"/>
<path d="M277.107 176.213L318.919 197.915C318.919 197.915 320.798 201.172 319.658 204.285C318.518 207.398 314.648 213.748 308.917 212.627C303.186 211.506 267.217 192.247 267.217 192.247L277.107 176.213Z" fill="url(#paint7_linear_24_3)"/>
<path d="M187.5 114.678C185.546 115.229 183.441 114.678 181.612 113.77C175.387 110.72 171.516 103.849 171.134 96.9284C170.752 90.0076 173.527 83.1495 177.823 77.7068C178.631 76.6796 179.702 75.6086 180.955 75.64C182.207 75.6713 183.184 76.6796 183.986 77.6379C188.871 83.4689 196.957 93.0828 198.11 100.855C198.698 104.87 196.519 105.189 193.901 108.334C192.009 110.663 190.688 113.776 187.5 114.678Z" fill="url(#paint8_linear_24_3)"/>
<path d="M180.735 91.8928C180.735 91.8928 180.197 110.845 183.936 114.315C187.675 117.785 190.875 111.114 190.875 111.114L199.951 101.237L180.735 91.8928Z" fill="url(#paint9_linear_24_3)"/>
<path d="M234.949 98.0558C232.313 100.968 229.551 103.805 226.287 105.991C219.755 110.375 211.519 111.816 203.74 110.833C197.533 110.043 191.383 107.701 186.88 103.354C181.393 98.0808 178.813 90.3083 178.543 82.686C178.274 75.0638 180.122 67.5605 182.389 60.2953C184.068 54.909 186.028 49.5352 189.153 44.8379C198.316 31.0589 216.003 25.3595 232.551 24.8584C240.762 24.6079 249.461 25.5536 256.112 30.3763C260.954 33.8836 264.987 40.748 264.117 46.9172C263.428 51.7962 259.532 56.8506 257.816 61.4978C252.762 75.1828 244.695 87.2832 234.949 98.0558Z" fill="url(#paint10_linear_24_3)"/>
<path d="M266.196 59.4247C265.307 61.7162 263.992 63.8182 262.319 65.6189C260.48 67.5035 258.086 68.7508 255.488 69.179C252.89 69.6072 250.223 69.1937 247.876 67.9989C244.388 66.12 241.851 62.6878 238.745 60.145C232.243 54.815 222.73 53.9257 215.94 58.7984C214.005 60.1825 212.183 62.0364 209.897 62.3496C207.015 62.7379 204.203 60.5521 201.341 61.097C198.673 61.5792 196.825 64.2285 195.473 66.8215C194.12 69.4144 192.842 72.2579 190.462 73.7109L191.326 66.6336C191.583 64.5229 191.834 62.3371 191.276 60.2953C190.719 58.2535 189.122 56.3996 187.193 56.3933C185.264 56.3871 183.623 58.241 182.959 60.2702C182.295 62.2995 182.332 64.5041 182.12 66.6524C181.869 69.2829 181.205 71.951 179.689 74.0053C178.174 76.0596 180.435 79.8739 178.099 79.2663C175.593 78.6024 169.117 73.4917 168.078 70.8925C164.545 62.1993 165.716 52.1031 167.576 42.8211C169.092 35.2427 171.046 27.7019 174.359 20.8563C177.673 14.0107 182.458 7.82267 188.639 4.12115C193.979 0.969528 200.168 -0.438239 206.345 0.0939594C208.838 0.294113 211.3 0.773103 213.686 1.52195C214.627 1.87954 215.61 2.11731 216.611 2.22969C218.126 2.31737 219.592 1.72864 221.057 1.28395C230.245 -1.51567 240.054 1.38416 248.916 5.26731C253.67 7.3592 258.461 9.84567 261.893 14.0357C266.847 20.0859 267.849 28.2593 268.044 36.0882C268.238 44.1489 269.384 51.7774 266.196 59.4247Z" fill="#3F3D56"/>
<path d="M275.434 131.432C259.319 121.098 229.682 128.927 208.062 149.551C193.387 163.556 186.066 179.971 187.249 192.93C186.736 192.61 186.241 192.26 185.759 191.903C170.026 180.059 175.349 153.209 197.646 131.933C219.943 110.657 250.776 102.997 266.541 114.841C271.896 118.887 274.821 124.693 275.434 131.432Z" fill="#68E1FD"/>
<path d="M275.434 131.432C259.319 121.098 229.682 128.927 208.062 149.551C193.387 163.556 186.066 179.971 187.249 192.93C186.736 192.61 186.241 192.26 185.759 191.903C170.026 180.059 175.349 153.209 197.646 131.933C219.943 110.657 250.776 102.997 266.541 114.841C271.896 118.887 274.821 124.693 275.434 131.432Z" fill="url(#paint11_linear_24_3)"/>
<path d="M215.051 217.938C206.947 217.938 199.87 215.859 194.458 211.782C188.602 207.398 185.132 200.953 184.437 193.193C183.116 178.788 191.22 161.708 206.114 147.472C228.574 126.039 259.708 117.935 276.988 129.021C277.526 129.353 278.077 129.735 278.647 130.167C284.785 134.783 288.286 141.578 288.769 149.827C289.602 163.982 281.466 180.667 267.01 194.464C255.875 205.112 242.321 212.784 228.843 216.128C224.336 217.288 219.705 217.896 215.051 217.938ZM258.029 129.722C253.472 129.761 248.939 130.393 244.545 131.601C232.375 134.852 220.118 141.948 210.022 151.581C196.581 164.414 188.94 180.147 190.08 192.648C190.65 198.855 193.275 203.752 197.878 207.21C212.521 218.239 241.764 210.673 263.065 190.343C276.324 177.685 283.808 162.66 283.075 150.153C282.687 143.626 279.975 138.253 275.215 134.708C274.771 134.376 274.351 134.081 273.931 133.818C269.672 131.106 264.223 129.722 258.029 129.722Z" fill="#68E1FD"/>
<g opacity="0.69">
<path opacity="0.69" d="M288.75 149.846C288.267 141.597 284.772 134.814 278.628 130.179C278.052 129.753 277.507 129.371 276.975 129.039C259.689 117.954 228.555 126.058 206.095 147.491C191.201 161.708 183.097 178.806 184.418 193.212C185.132 200.972 188.602 207.404 194.439 211.801C195.954 212.942 197.585 213.92 199.306 214.719C204.247 216.946 209.62 218.05 215.039 217.951C219.687 217.917 224.314 217.318 228.818 216.166C235.811 214.386 242.529 211.659 248.784 208.062C255.388 204.293 261.503 199.726 266.991 194.464C277.012 184.875 284.033 173.896 287.077 163.33C288.396 158.963 288.962 154.403 288.75 149.846ZM263.071 190.368C241.776 210.698 212.533 218.264 197.878 207.235C193.281 203.778 190.663 198.88 190.086 192.667C188.94 180.178 196.587 164.439 210.028 151.606C220.124 141.979 232.381 134.877 244.551 131.626C248.943 130.418 253.474 129.787 258.029 129.747C264.223 129.747 269.666 131.131 273.937 133.868C274.357 134.131 274.777 134.426 275.19 134.758C279.956 138.334 282.668 143.683 283.056 150.209C283.802 162.685 276.324 177.71 263.064 190.368H263.071Z" fill="url(#paint12_linear_24_3)"/>
</g>
<path d="M282.199 180.623C281.71 182.802 281.178 185.082 279.693 186.773C277.67 189.116 274.301 189.829 272.04 191.934C271.722 192.208 271.464 192.545 271.282 192.923C270.8 194.113 271.733 195.429 272.854 196.055C273.839 196.577 274.959 196.787 276.066 196.656C277.172 196.525 278.213 196.06 279.048 195.322C278.174 195.695 277.324 196.124 276.505 196.606C276.136 196.825 275.735 197.114 275.697 197.546C275.66 197.978 276.123 198.416 276.562 198.648C277.792 199.273 279.183 199.507 280.55 199.319C281.917 199.13 283.193 198.529 284.209 197.596L281.929 198.917C281.46 199.193 280.927 199.594 281.002 200.126C281.059 200.527 281.441 200.79 281.81 200.965C283.018 201.513 284.366 201.674 285.668 201.426C286.971 201.178 288.166 200.534 289.088 199.581L284.416 202.337C284.864 202.918 285.465 203.364 286.152 203.625C286.838 203.886 287.584 203.952 288.305 203.815C289.748 203.514 291.097 202.87 292.238 201.936C294.683 200.155 296.827 197.994 298.589 195.535C300.706 192.573 302.278 188.777 301.095 185.326C299.886 181.769 296.228 179.746 292.858 178.092C290.353 176.84 287.71 175.618 284.892 175.38C283.42 175.255 282.9 175.136 282.581 176.464C282.261 177.792 282.487 179.282 282.199 180.623Z" fill="url(#paint13_linear_24_3)"/>
<path d="M169.211 164.627L167.583 185.214C167.583 185.214 135.303 183.642 125.444 182.877C124.279 182.784 123.428 182.708 122.983 182.646C122.285 182.506 121.637 182.184 121.104 181.713C117.077 178.474 112.336 167.339 113.369 154.418C114.565 139.386 143.395 95.7634 143.395 95.7634C145.865 97.2849 148.155 99.0813 150.221 101.118C164.451 115.273 156.002 132.797 156.002 132.797C156.002 132.797 140.971 148.411 143.395 153.816C145.818 159.222 169.211 164.627 169.211 164.627Z" fill="#68E1FD"/>
<path d="M163.036 279.349C161.473 279.325 159.919 279.115 158.407 278.722L158.1 278.635C138.979 273.173 133.186 207.861 133.186 207.861H133.323L147.534 205.794L178.618 201.26L184.255 217.5C184.255 217.5 189.078 279.468 163.036 279.349Z" fill="#3F3D56"/>
<path d="M131.257 198.755L130.975 198.654C130.975 198.654 131.063 198.479 131.257 198.755Z" fill="url(#paint14_linear_24_3)"/>
<path d="M165.81 278.729C164.92 279.067 163.986 279.278 163.036 279.355C161.358 279.52 159.664 279.278 158.1 278.647C156.007 277.746 154.23 276.241 152.996 274.326C147.791 266.722 138.591 249.899 135.384 223.081C134.576 216.304 133.893 211.4 133.323 207.842L147.535 205.776C149.276 210.73 154.731 226.77 155.401 235.494C156.203 245.903 149.401 264.724 158.608 270.323C167.815 275.923 165.81 278.729 165.81 278.729Z" fill="url(#paint15_linear_24_3)"/>
<path d="M172.625 88.1349C172.512 90.6402 171.704 93.1455 170.214 94.6549C166.656 98.2437 157.18 99.0391 152.432 100.411C151.693 100.624 150.948 100.843 150.222 101.118C149.38 101.415 148.588 101.837 147.873 102.371C146.395 103.505 145.468 105.202 144.578 106.843C142.215 111.227 139.856 115.611 137.501 119.996L127.499 138.559C123.647 145.725 119.708 153.171 119.181 161.288C118.743 168.122 120.766 174.886 121.06 181.713C117.033 178.475 112.292 167.339 113.325 154.418C114.522 139.386 143.351 95.7635 143.351 95.7635C145.75 88.5546 172.161 88.16 172.161 88.16C172.349 88.1537 172.493 88.1349 172.625 88.1349Z" fill="url(#paint16_linear_24_3)"/>
<path d="M261.098 275.121C255.092 281.134 229.864 281.134 224.459 276.323C219.053 271.513 208.043 270.117 208.65 258.705L212.051 253.695C212.051 253.695 233.346 254.835 241.075 251.296C241.526 253.388 246.618 255.724 247.281 256.494C250.883 260.709 267.098 269.115 261.098 275.121Z" fill="url(#paint17_linear_24_3)"/>
<path d="M263.065 190.368C241.77 210.698 212.527 218.264 197.872 207.235C193.275 203.778 190.657 198.88 190.08 192.667C190.08 192.667 198.642 211.456 237.874 188.646C277.107 165.835 273.931 133.843 273.931 133.843C274.351 134.106 274.77 134.401 275.184 134.733C279.95 138.309 282.662 143.658 283.05 150.184C283.802 162.685 276.324 177.71 263.065 190.368Z" fill="#68E1FD"/>
<path d="M263.065 190.368C241.77 210.698 212.527 218.264 197.872 207.235C193.275 203.778 190.657 198.88 190.08 192.667C190.08 192.667 198.642 211.456 237.874 188.646C277.107 165.835 273.931 133.843 273.931 133.843C274.351 134.106 274.77 134.401 275.184 134.733C279.95 138.309 282.662 143.658 283.05 150.184C283.802 162.685 276.324 177.71 263.065 190.368Z" fill="url(#paint18_linear_24_3)"/>
<g opacity="0.69">
<path opacity="0.69" d="M262.871 190.174C241.576 210.498 212.327 218.064 197.671 207.034C193.074 203.577 190.456 198.679 189.88 192.466C188.74 179.978 196.381 164.238 209.822 151.405C219.918 141.779 232.175 134.676 244.35 131.426C248.743 130.217 253.273 129.585 257.829 129.547C264.017 129.547 269.459 130.931 273.731 133.668C274.15 133.931 274.57 134.225 274.983 134.557C279.75 138.134 282.462 143.482 282.85 150.009C283.608 162.485 276.13 177.51 262.871 190.174Z" fill="url(#paint19_linear_24_3)"/>
</g>
<path d="M250.682 130.06L188.633 191.439C188.633 191.439 190.23 203.045 193.838 201.849L265.288 130.762C260.457 130.018 255.562 129.783 250.682 130.06Z" fill="url(#paint20_linear_24_3)"/>
<path d="M269.002 116.682L285.33 137.501C285.33 137.501 269.816 116.382 233.346 129.797L219.861 116.282C219.861 116.282 250.388 100.073 269.002 116.682Z" fill="#68E1FD"/>
<path d="M269.002 116.682L285.33 137.501C285.33 137.501 269.816 116.382 233.346 129.797L219.861 116.282C219.861 116.282 250.388 100.073 269.002 116.682Z" fill="url(#paint21_linear_24_3)"/>
<path d="M180.241 155.163C181.606 157.149 181.525 159.829 180.773 162.121C180.022 164.414 178.681 166.449 177.642 168.616C176.946 170.019 176.389 171.635 176.815 173.138C177.185 174.081 177.75 174.935 178.475 175.644C181.08 178.55 184.161 181.681 188.063 181.738C189.466 181.738 191.458 181.8 191.558 183.197C191.545 183.721 191.338 184.221 190.976 184.6C190.177 185.592 189.176 186.402 188.038 186.975C186.9 187.547 185.653 187.869 184.381 187.919L190.995 187.85C191.229 187.811 191.469 187.829 191.696 187.9C191.922 187.972 192.128 188.097 192.297 188.264C192.392 188.447 192.444 188.649 192.451 188.855C192.457 189.06 192.418 189.265 192.335 189.454C191.875 190.956 191.055 192.323 189.946 193.435C188.836 194.547 187.472 195.372 185.971 195.836C187.204 195.777 188.414 195.475 189.529 194.947C191.301 196.619 190.187 200.195 187.775 200.583C188.627 200.045 189.836 199.525 190.544 200.251C191.251 200.978 190.713 202.13 189.999 202.832C186.923 205.738 181.625 204.272 178.644 201.266C175.662 198.26 174.109 194.145 171.648 190.694C170.332 188.853 168.76 187.193 167.602 185.245C159.867 172.243 172.556 163.574 180.241 155.163Z" fill="url(#paint22_linear_24_3)"/>
<path d="M290.597 283.194V277.877C288.656 277.351 286.77 276.95 284.96 276.324C281.421 275.202 278.367 272.912 276.298 269.829C274.591 267.136 273.719 263.997 273.793 260.81H284.184C284.666 264.68 286.545 267.442 290.553 268.513V254.409C288.468 253.782 286.388 253.231 284.328 252.58C282.066 251.937 279.994 250.755 278.29 249.135C276.508 247.362 275.331 245.071 274.927 242.59C274.312 239.57 274.539 236.439 275.584 233.54C276.346 231.458 277.558 229.571 279.135 228.013C280.711 226.454 282.613 225.264 284.704 224.527C286.427 223.972 288.182 223.519 289.958 223.168C290.153 223.118 290.347 223.087 290.585 223.043V215.959H300.305V216.648C300.305 218.659 300.305 220.675 300.305 222.692C300.305 223.187 300.455 223.319 300.931 223.444C304.256 224.074 307.37 225.523 309.994 227.659C312.76 229.938 314.596 233.151 315.155 236.69C315.324 237.649 315.399 238.626 315.524 239.653H304.952C304.921 238.212 304.47 236.812 303.655 235.623C302.839 234.435 301.695 233.511 300.361 232.964V246.116C300.712 246.198 301.1 246.304 301.501 246.386C304.356 246.947 307.137 247.836 309.787 249.035C314.053 251.045 316.408 254.415 316.965 259.056C317.466 263.202 316.715 267.079 314.228 270.524C312.288 273.235 309.545 275.268 306.387 276.336C304.439 277.006 302.409 277.457 300.311 278.033V283.188L290.597 283.194ZM300.361 256.432V268.682C301.935 268.45 303.419 267.802 304.658 266.804C306.919 264.925 307.714 260.34 304.407 258.317C303.098 257.607 301.747 256.977 300.361 256.432ZM290.566 243.905V232.043C289.294 232.596 288.056 233.223 286.858 233.922C284.159 235.726 283.727 240.718 287.178 242.465C288.23 243.016 289.376 243.398 290.56 243.88L290.566 243.905Z" fill="#68E1FD"/>
<path d="M290.597 283.194V277.877C288.656 277.351 286.77 276.95 284.96 276.324C281.421 275.202 278.367 272.912 276.298 269.829C274.591 267.136 273.719 263.997 273.793 260.81H284.184C284.666 264.68 286.545 267.442 290.553 268.513V254.409C288.468 253.782 286.388 253.231 284.328 252.58C282.066 251.937 279.994 250.755 278.29 249.135C276.508 247.362 275.331 245.071 274.927 242.59C274.312 239.57 274.539 236.439 275.584 233.54C276.346 231.458 277.558 229.571 279.135 228.013C280.711 226.454 282.613 225.264 284.704 224.527C286.427 223.972 288.182 223.519 289.958 223.168C290.153 223.118 290.347 223.087 290.585 223.043V215.959H300.305V216.648C300.305 218.659 300.305 220.675 300.305 222.692C300.305 223.187 300.455 223.319 300.931 223.444C304.256 224.074 307.37 225.523 309.994 227.659C312.76 229.938 314.596 233.151 315.155 236.69C315.324 237.649 315.399 238.626 315.524 239.653H304.952C304.921 238.212 304.47 236.812 303.655 235.623C302.839 234.435 301.695 233.511 300.361 232.964V246.116C300.712 246.198 301.1 246.304 301.501 246.386C304.356 246.947 307.137 247.836 309.787 249.035C314.053 251.045 316.408 254.415 316.965 259.056C317.466 263.202 316.715 267.079 314.228 270.524C312.288 273.235 309.545 275.268 306.387 276.336C304.439 277.006 302.409 277.457 300.311 278.033V283.188L290.597 283.194ZM300.361 256.432V268.682C301.935 268.45 303.419 267.802 304.658 266.804C306.919 264.925 307.714 260.34 304.407 258.317C303.098 257.607 301.747 256.977 300.361 256.432ZM290.566 243.905V232.043C289.294 232.596 288.056 233.223 286.858 233.922C284.159 235.726 283.727 240.718 287.178 242.465C288.23 243.016 289.376 243.398 290.56 243.88L290.566 243.905Z" fill="url(#paint23_linear_24_3)"/>
<path d="M283.989 283.401V278.077C282.054 277.551 280.169 277.144 278.353 276.524C274.807 275.405 271.746 273.115 269.672 270.029C267.961 267.338 267.089 264.198 267.167 261.01H277.557C278.033 264.874 279.912 267.643 283.921 268.714V254.59C281.841 253.964 279.756 253.413 277.701 252.762C275.438 252.118 273.364 250.937 271.657 249.317C269.877 247.543 268.702 245.252 268.3 242.772C267.672 239.755 267.889 236.623 268.927 233.722C269.686 231.635 270.898 229.743 272.474 228.179C274.051 226.616 275.953 225.42 278.046 224.678C279.769 224.123 281.524 223.669 283.3 223.319C283.495 223.268 283.689 223.237 283.927 223.187V216.16H293.647V216.849C293.647 218.859 293.647 220.876 293.647 222.893C293.647 223.387 293.804 223.519 294.273 223.644C297.599 224.282 300.713 225.737 303.336 227.878C306.1 230.158 307.934 233.37 308.491 236.91C308.66 237.868 308.735 238.845 308.86 239.872H298.345C298.319 238.43 297.873 237.027 297.061 235.835C296.249 234.643 295.106 233.715 293.772 233.164V246.317C294.117 246.398 294.511 246.505 294.906 246.586C297.761 247.147 300.541 248.036 303.192 249.235C307.464 251.246 309.812 254.615 310.376 259.256C310.877 263.403 310.119 267.28 307.633 270.724C305.694 273.429 302.953 275.454 299.798 276.511C297.843 277.188 295.814 277.639 293.716 278.215V283.401H283.989ZM293.747 256.638V268.889C295.323 268.657 296.809 268.009 298.05 267.01C300.305 265.131 301.1 260.547 297.8 258.524C296.489 257.811 295.135 257.18 293.747 256.632V256.638ZM283.952 244.112V232.275C282.68 232.828 281.442 233.455 280.244 234.154C277.545 235.958 277.112 240.949 280.563 242.697C281.628 243.217 282.768 243.599 283.952 244.081V244.112Z" fill="#68E1FD"/>
<path d="M334.903 245.578V242.603C333.819 242.308 332.767 242.083 331.771 241.732C329.794 241.102 328.088 239.822 326.93 238.1C325.973 236.595 325.486 234.84 325.533 233.058H331.339C331.608 235.219 332.661 236.766 334.903 237.367V229.475C333.738 229.137 332.573 228.849 331.42 228.454C330.157 228.095 328.998 227.435 328.045 226.532C327.048 225.539 326.39 224.257 326.166 222.868C325.82 221.179 325.946 219.429 326.529 217.807C326.954 216.64 327.632 215.581 328.514 214.707C329.397 213.834 330.462 213.166 331.633 212.753C332.597 212.443 333.578 212.188 334.571 211.989L334.922 211.92V207.98H340.358V208.362C340.358 209.49 340.358 210.617 340.358 211.744C340.358 212.02 340.446 212.108 340.709 212.164C342.567 212.522 344.308 213.335 345.776 214.531C347.322 215.805 348.349 217.601 348.663 219.579C348.757 220.118 348.794 220.663 348.87 221.233H342.951C342.938 220.425 342.689 219.638 342.233 218.97C341.778 218.302 341.137 217.782 340.389 217.475V224.834C340.583 224.884 340.803 224.941 341.016 224.985C342.613 225.297 344.168 225.796 345.65 226.469C346.764 226.951 347.725 227.727 348.432 228.713C349.139 229.699 349.565 230.859 349.665 232.068C349.972 234.117 349.547 236.209 348.465 237.975C347.382 239.741 345.711 241.07 343.746 241.726C342.657 242.108 341.523 242.352 340.345 242.678V245.565L334.903 245.578ZM340.358 230.609V237.461C341.241 237.328 342.072 236.961 342.763 236.396C344.016 235.363 344.473 232.782 342.625 231.655C341.893 231.258 341.135 230.908 340.358 230.609ZM334.884 223.594V216.974C334.173 217.283 333.48 217.634 332.811 218.026C331.301 219.035 331.057 221.828 332.986 222.805C333.556 223.106 334.22 223.319 334.884 223.594Z" fill="#68E1FD"/>
<path d="M334.903 245.578V242.603C333.819 242.308 332.767 242.083 331.771 241.732C329.794 241.102 328.088 239.822 326.93 238.1C325.973 236.595 325.486 234.84 325.533 233.058H331.339C331.608 235.219 332.661 236.766 334.903 237.367V229.475C333.738 229.137 332.573 228.849 331.42 228.454C330.157 228.095 328.998 227.435 328.045 226.532C327.048 225.539 326.39 224.257 326.166 222.868C325.82 221.179 325.946 219.429 326.529 217.807C326.954 216.64 327.632 215.581 328.514 214.707C329.397 213.834 330.462 213.166 331.633 212.753C332.597 212.443 333.578 212.188 334.571 211.989L334.922 211.92V207.98H340.358V208.362C340.358 209.49 340.358 210.617 340.358 211.744C340.358 212.02 340.446 212.108 340.709 212.164C342.567 212.522 344.308 213.335 345.776 214.531C347.322 215.805 348.349 217.601 348.663 219.579C348.757 220.118 348.794 220.663 348.87 221.233H342.951C342.938 220.425 342.689 219.638 342.233 218.97C341.778 218.302 341.137 217.782 340.389 217.475V224.834C340.583 224.884 340.803 224.941 341.016 224.985C342.613 225.297 344.168 225.796 345.65 226.469C346.764 226.951 347.725 227.727 348.432 228.713C349.139 229.699 349.565 230.859 349.665 232.068C349.972 234.117 349.547 236.209 348.465 237.975C347.382 239.741 345.711 241.07 343.746 241.726C342.657 242.108 341.523 242.352 340.345 242.678V245.565L334.903 245.578ZM340.358 230.609V237.461C341.241 237.328 342.072 236.961 342.763 236.396C344.016 235.363 344.473 232.782 342.625 231.655C341.893 231.258 341.135 230.908 340.358 230.609ZM334.884 223.594V216.974C334.173 217.283 333.48 217.634 332.811 218.026C331.301 219.035 331.057 221.828 332.986 222.805C333.556 223.106 334.22 223.319 334.884 223.594Z" fill="url(#paint24_linear_24_3)"/>
<path d="M331.214 245.691V242.69C330.124 242.396 329.072 242.171 328.082 241.82C326.105 241.19 324.399 239.909 323.241 238.187C322.287 236.682 321.8 234.927 321.844 233.145H327.656C327.919 235.306 328.971 236.853 331.214 237.454V229.563C330.049 229.225 328.884 228.905 327.731 228.542C326.467 228.183 325.309 227.523 324.356 226.619C323.361 225.625 322.704 224.343 322.477 222.955C322.131 221.267 322.259 219.515 322.846 217.895C323.272 216.728 323.949 215.67 324.83 214.795C325.711 213.92 326.775 213.251 327.944 212.834C328.908 212.526 329.889 212.273 330.882 212.076L331.232 212.007V208.068H336.669V208.45C336.669 209.577 336.669 210.705 336.669 211.826C336.669 212.108 336.757 212.195 337.026 212.252C338.883 212.61 340.622 213.423 342.086 214.619C343.638 215.889 344.666 217.686 344.974 219.667C345.068 220.206 345.112 220.751 345.18 221.321H339.268C339.255 220.512 339.006 219.726 338.551 219.058C338.095 218.39 337.454 217.87 336.706 217.563V224.922C336.901 224.972 337.126 225.028 337.333 225.072C338.93 225.384 340.486 225.882 341.967 226.557C343.081 227.039 344.042 227.815 344.749 228.801C345.457 229.787 345.883 230.947 345.982 232.156C346.323 234.41 345.773 236.708 344.448 238.563C343.364 240.08 341.83 241.217 340.063 241.814C338.967 242.196 337.834 242.44 336.663 242.766V245.653L331.214 245.691ZM336.669 230.722V237.573C337.549 237.44 338.378 237.072 339.068 236.509C340.32 235.475 340.777 232.895 338.93 231.768C338.205 231.372 337.456 231.023 336.688 230.722H336.669ZM331.189 223.701V217.087C330.477 217.396 329.785 217.747 329.115 218.139C327.606 219.147 327.368 221.941 329.291 222.918C329.886 223.218 330.525 223.431 331.189 223.701Z" fill="#68E1FD"/>
</g>
<defs>
<linearGradient id="paint0_linear_24_3" x1="182.464" y1="187.287" x2="177.654" y2="337.815" gradientUnits="userSpaceOnUse">
<stop offset="0.01"/>
<stop offset="0.13" stop-opacity="0.69"/>
<stop offset="1" stop-opacity="0"/>
</linearGradient>
<linearGradient id="paint1_linear_24_3" x1="4700.17" y1="26789.9" x2="9017.26" y2="27206.8" gradientUnits="userSpaceOnUse">
<stop offset="0.01"/>
<stop offset="0.13" stop-opacity="0.69"/>
<stop offset="1" stop-opacity="0"/>
</linearGradient>
<linearGradient id="paint2_linear_24_3" x1="10881" y1="24348.7" x2="18239.9" y2="20872.6" gradientUnits="userSpaceOnUse">
<stop offset="0.01"/>
<stop offset="0.13" stop-opacity="0.69"/>
<stop offset="1" stop-opacity="0"/>
</linearGradient>
<linearGradient id="paint3_linear_24_3" x1="7502.95" y1="4418.48" x2="7183.54" y2="3542.51" gradientUnits="userSpaceOnUse">
<stop offset="0.01"/>
<stop offset="0.13" stop-opacity="0.69"/>
<stop offset="1" stop-opacity="0"/>
</linearGradient>
<linearGradient id="paint4_linear_24_3" x1="11624.4" y1="21353.5" x2="13711.6" y2="21740.2" gradientUnits="userSpaceOnUse">
<stop offset="0.01"/>
<stop offset="0.13" stop-opacity="0.69"/>
<stop offset="1" stop-opacity="0"/>
</linearGradient>
<linearGradient id="paint5_linear_24_3" x1="17928.2" y1="20212.8" x2="22645.4" y2="19680.6" gradientUnits="userSpaceOnUse">
<stop offset="0.01"/>
<stop offset="0.13" stop-opacity="0.69"/>
<stop offset="1" stop-opacity="0"/>
</linearGradient>
<linearGradient id="paint6_linear_24_3" x1="8555.68" y1="25325.7" x2="16194.6" y2="26746.3" gradientUnits="userSpaceOnUse">
<stop offset="0.01"/>
<stop offset="0.13" stop-opacity="0.69"/>
<stop offset="1" stop-opacity="0"/>
</linearGradient>
<linearGradient id="paint7_linear_24_3" x1="25562.9" y1="13564.5" x2="24171.6" y2="19938.4" gradientUnits="userSpaceOnUse">
<stop offset="0.01"/>
<stop offset="0.13" stop-opacity="0.69"/>
<stop offset="1" stop-opacity="0"/>
</linearGradient>
<linearGradient id="paint8_linear_24_3" x1="171.097" y1="95.2686" x2="198.235" y2="95.2686" gradientUnits="userSpaceOnUse">
<stop stop-color="#ECC4D7"/>
<stop offset="0.42" stop-color="#EFD4D1"/>
<stop offset="1" stop-color="#F2EAC9"/>
</linearGradient>
<linearGradient id="paint9_linear_24_3" x1="6110.21" y1="3508.29" x2="5941.8" y2="7843.53" gradientUnits="userSpaceOnUse">
<stop offset="0.01"/>
<stop offset="0.13" stop-opacity="0.69"/>
<stop offset="1" stop-opacity="0"/>
</linearGradient>
<linearGradient id="paint10_linear_24_3" x1="26119.3" y1="13805.5" x2="38325" y2="12315.5" gradientUnits="userSpaceOnUse">
<stop stop-color="#ECC4D7"/>
<stop offset="0.42" stop-color="#EFD4D1"/>
<stop offset="1" stop-color="#F2EAC9"/>
</linearGradient>
<linearGradient id="paint11_linear_24_3" x1="28171" y1="26860.5" x2="43730.9" y2="26860.5" gradientUnits="userSpaceOnUse">
<stop offset="0.01"/>
<stop offset="0.13" stop-opacity="0.69"/>
<stop offset="1" stop-opacity="0"/>
</linearGradient>
<linearGradient id="paint12_linear_24_3" x1="296.516" y1="133.442" x2="255.279" y2="159.265" gradientUnits="userSpaceOnUse">
<stop offset="0.02" stop-color="white" stop-opacity="0"/>
<stop offset="0.58" stop-color="white" stop-opacity="0.39"/>
<stop offset="0.68" stop-color="white" stop-opacity="0.68"/>
<stop offset="1" stop-color="white"/>
</linearGradient>
<linearGradient id="paint13_linear_24_3" x1="13454.9" y1="11069.5" x2="14923.2" y2="11069.5" gradientUnits="userSpaceOnUse">
<stop stop-color="#ECC4D7"/>
<stop offset="0.42" stop-color="#EFD4D1"/>
<stop offset="1" stop-color="#F2EAC9"/>
</linearGradient>
<linearGradient id="paint14_linear_24_3" x1="190.319" y1="260.018" x2="190.446" y2="260.018" gradientUnits="userSpaceOnUse">
<stop offset="0.01"/>
<stop offset="0.13" stop-opacity="0.69"/>
<stop offset="1" stop-opacity="0"/>
</linearGradient>
<linearGradient id="paint15_linear_24_3" x1="5848.51" y1="35271.3" x2="10586.1" y2="34976.5" gradientUnits="userSpaceOnUse">
<stop offset="0.01"/>
<stop offset="0.13" stop-opacity="0.69"/>
<stop offset="1" stop-opacity="0"/>
</linearGradient>
<linearGradient id="paint16_linear_24_3" x1="8396.58" y1="25916.5" x2="17584.7" y2="26999.8" gradientUnits="userSpaceOnUse">
<stop offset="0.01"/>
<stop offset="0.13" stop-opacity="0.69"/>
<stop offset="1" stop-opacity="0"/>
</linearGradient>
<linearGradient id="paint17_linear_24_3" x1="20182.6" y1="14481.4" x2="23747.2" y2="17201.8" gradientUnits="userSpaceOnUse">
<stop offset="0.01"/>
<stop offset="0.13" stop-opacity="0.69"/>
<stop offset="1" stop-opacity="0"/>
</linearGradient>
<linearGradient id="paint18_linear_24_3" x1="28554.3" y1="27976" x2="42372.7" y2="27976" gradientUnits="userSpaceOnUse">
<stop offset="0.01"/>
<stop offset="0.13" stop-opacity="0.69"/>
<stop offset="1" stop-opacity="0"/>
</linearGradient>
<linearGradient id="paint19_linear_24_3" x1="33486.3" y1="27367.1" x2="36000.7" y2="30204.6" gradientUnits="userSpaceOnUse">
<stop offset="0.02" stop-color="white" stop-opacity="0"/>
<stop offset="0.58" stop-color="white" stop-opacity="0.39"/>
<stop offset="0.68" stop-color="white" stop-opacity="0.68"/>
<stop offset="1" stop-color="white"/>
</linearGradient>
<linearGradient id="paint20_linear_24_3" x1="27084.4" y1="22479.8" x2="29633.9" y2="28361.4" gradientUnits="userSpaceOnUse">
<stop offset="0.02" stop-color="white" stop-opacity="0"/>
<stop offset="0.58" stop-color="white" stop-opacity="0.39"/>
<stop offset="0.68" stop-color="white" stop-opacity="0.68"/>
<stop offset="1" stop-color="white"/>
</linearGradient>
<linearGradient id="paint21_linear_24_3" x1="23294.9" y1="7906.14" x2="30137.7" y2="7906.14" gradientUnits="userSpaceOnUse">
<stop offset="0.02" stop-color="white" stop-opacity="0"/>
<stop offset="0.58" stop-color="white" stop-opacity="0.39"/>
<stop offset="0.68" stop-color="white" stop-opacity="0.68"/>
<stop offset="1" stop-color="white"/>
</linearGradient>
<linearGradient id="paint22_linear_24_3" x1="7393.4" y1="18155.5" x2="8579.2" y2="18155.5" gradientUnits="userSpaceOnUse">
<stop stop-color="#ECC4D7"/>
<stop offset="0.42" stop-color="#EFD4D1"/>
<stop offset="1" stop-color="#F2EAC9"/>
</linearGradient>
<linearGradient id="paint23_linear_24_3" x1="22612.8" y1="31651.6" x2="15507.3" y2="32670.1" gradientUnits="userSpaceOnUse">
<stop offset="0.01"/>
<stop offset="0.13" stop-opacity="0.69"/>
<stop offset="1" stop-opacity="0"/>
</linearGradient>
<linearGradient id="paint24_linear_24_3" x1="13998.3" y1="16574.6" x2="11776" y2="16893.3" gradientUnits="userSpaceOnUse">
<stop offset="0.01"/>
<stop offset="0.13" stop-opacity="0.69"/>
<stop offset="1" stop-opacity="0"/>
</linearGradient>
<clipPath id="clip0_24_3">
<rect width="367.509" height="305.04" fill="white"/>
</clipPath>
</defs>
</svg>
