<svg width="64" height="79" viewBox="0 0 64 79" fill="none" xmlns="http://www.w3.org/2000/svg">
<path d="M55.8715 34.2505H49.1183C48.7562 34.2505 48.4599 34.5454 48.4599 34.9088V36.2795C41.3644 33.8252 33.604 34.5823 27.1734 38.1557V23.1076C27.1734 22.7455 26.8785 22.4492 26.5151 22.4492C26.1517 22.4492 25.8567 22.7455 25.8567 23.1076V38.9326C24.5006 39.791 23.2168 40.7838 22.0213 41.903C18.2517 41.1406 14.7072 39.4408 11.7486 36.8878C11.1272 36.3532 10.3359 36.0859 9.51821 36.1505C8.70056 36.211 7.95533 36.5863 7.41944 37.2064C6.38191 38.4072 6.42536 40.1795 7.51951 41.3276C14.2806 48.4323 23.5275 52.1717 32.889 52.1703C38.1886 52.1703 43.5198 50.9537 48.4626 48.4876V51.4172C48.4626 51.7806 48.7562 52.0755 49.1209 52.0755H55.8741C56.2362 52.0755 56.5324 51.7806 56.5324 51.4172V34.9088C56.5298 34.5441 56.2335 34.2505 55.8715 34.2505ZM8.47146 40.4204C7.84604 39.7647 7.82234 38.7535 8.41484 38.0675C8.72031 37.712 9.14691 37.4987 9.61433 37.4645C10.0738 37.4329 10.5334 37.5804 10.8875 37.8845C14.062 40.6258 17.8698 42.431 21.9212 43.221C22.0081 43.2618 22.1016 43.2868 22.1964 43.2868C22.2017 43.2868 22.2082 43.2842 22.2135 43.2842C23.7606 43.5659 25.3393 43.7094 26.9338 43.6831C27.2972 43.6765 27.5868 43.3763 27.5802 43.0129C27.5737 42.6495 27.2524 42.3388 26.9101 42.3664C25.8264 42.3888 24.752 42.3072 23.6882 42.1742C30.4795 36.3269 40.0043 34.5718 48.4573 37.6738V47.0156C35.2024 53.9597 18.8112 51.2855 8.47146 40.4204ZM55.2131 50.7602H49.7766V35.5672H55.2131V50.7602Z" fill="#FF833C"/>
<path d="M21.5222 22.7348C22.6058 22.7348 23.7039 22.6071 24.7967 22.3438C24.8046 22.3425 24.8125 22.3398 24.8204 22.3372C24.9771 22.2964 25.1048 22.2003 25.1891 22.0739C25.1891 22.0739 25.1891 22.0765 25.1891 22.0739C25.2154 22.037 25.2378 21.9936 25.2549 21.9501C25.3023 21.8342 25.3168 21.7039 25.2905 21.5749C25.2865 21.5577 25.2826 21.5419 25.2773 21.5235C23.2365 14.0949 15.7657 9.65376 8.26464 11.4128C8.09216 11.4536 7.94206 11.5629 7.85121 11.7157C7.75904 11.8671 7.73402 12.0514 7.78011 12.2239C9.45886 18.5097 15.2535 22.7362 21.5222 22.7348ZM23.434 20.2174L14.9217 15.1561C14.6083 14.9705 14.2054 15.0732 14.0198 15.3865C13.8341 15.6973 13.9368 16.1028 14.2489 16.2884L22.7717 21.355C16.8467 21.9541 11.1231 18.2911 9.24951 12.5544C15.2469 11.4747 21.0956 14.6966 23.434 20.2174Z" fill="#FF833C"/>
<path d="M27.8382 22.0727C27.9172 22.1898 28.0331 22.2807 28.1766 22.3281C28.1766 22.3281 28.1766 22.3281 28.1779 22.3281C28.1937 22.3334 28.2095 22.3386 28.2266 22.3426C28.2266 22.3426 28.2279 22.3426 28.2292 22.3426C29.3695 22.6178 30.5071 22.7521 31.6276 22.7521C37.9054 22.7521 43.55 18.5874 45.2472 12.2253C45.2932 12.0528 45.2682 11.8685 45.1747 11.7171C45.0852 11.5643 44.9325 11.4551 44.7613 11.4142C37.2682 9.66043 29.7895 14.0976 27.7487 21.5249C27.7447 21.542 27.7408 21.5565 27.7381 21.5723C27.7118 21.7053 27.7263 21.8343 27.7737 21.9515C27.7895 21.9937 27.8119 22.0345 27.8382 22.0727ZM43.7764 12.5545C41.8857 18.3965 36.2438 22.0029 30.2464 21.3603L36.8323 17.4446C37.1431 17.2589 37.2458 16.8547 37.0614 16.5427C36.8732 16.2306 36.4703 16.1279 36.1556 16.3122L29.5907 20.2175C31.9317 14.6967 37.7738 11.4748 43.7764 12.5545Z" fill="#FF833C"/>
</svg>
