<svg width="65" height="82" viewBox="0 0 65 82" fill="none" xmlns="http://www.w3.org/2000/svg">
<path d="M56.0999 38.3C56.3999 38.6 56.5999 38.9001 56.5999 39.2001H57.9999C57.9999 38.4001 57.6999 37.7 56.9999 37.1C56.5999 36.7 56.0999 36.5001 55.4999 36.4001V34.8H53.9999V36.4001C53.4999 36.5001 52.8999 36.7 52.4999 37.1C51.8999 37.6 51.4999 38.4001 51.4999 39.2001C51.4999 40.0001 51.7999 40.7 52.4999 41.3C53.0999 41.8 53.8999 42.1 54.6999 42.1C55.1999 42.1 55.5999 42.3 55.8999 42.5C56.1999 42.8 56.3999 43.1001 56.3999 43.4001C56.3999 43.7001 56.1999 44.1 55.8999 44.3C55.2999 44.9 54.0999 44.9 53.3999 44.3C53.0999 44 52.8999 43.7001 52.8999 43.4001H51.3999C51.3999 44.2001 51.6999 44.9 52.3999 45.5C52.7999 45.9 53.2999 46.1 53.8999 46.2001V47.7001H55.3999V46.2001C55.8999 46.1 56.4999 45.8 56.8999 45.5C57.4999 45 57.8999 44.2001 57.8999 43.4001C57.8999 42.6001 57.5999 41.9 56.8999 41.3C56.2999 40.8 55.4999 40.5 54.6999 40.5C54.1999 40.5 53.7999 40.3 53.4999 40.1C53.1999 39.8 52.9999 39.5001 52.9999 39.2001C52.9999 38.9001 53.1999 38.5 53.4999 38.3C54.1999 37.8 55.3999 37.8 56.0999 38.3Z" fill="#FF833C"/>
<path d="M54.8001 31.2C49.2001 31.2 44.6001 35.8 44.6001 41.4C44.6001 47 49.2001 51.5999 54.8001 51.5999C60.4001 51.5999 65.0001 47 65.0001 41.4C65.0001 35.8 60.4001 31.2 54.8001 31.2ZM54.8001 50C50.0001 50 46.1001 46.0999 46.1001 41.2999C46.1001 36.4999 50.0001 32.5999 54.8001 32.5999C59.6001 32.5999 63.5001 36.4999 63.5001 41.2999C63.5001 46.0999 59.6001 50 54.8001 50Z" fill="#FF833C"/>
<path d="M36 55.2001C35.4 55.0001 34.6 55 34 55.3C33.7 55.4 33.3 55.4 33 55.3C32.8 55.2 32.6 55.1 32.5 54.8C32.4 54.6 32.4 54.3 32.6 54.1C32.7 53.8 33 53.6 33.3 53.5C33.6 53.4 34 53.4 34.3 53.5C34.6 53.6 34.8 53.8 34.8 54L36.2 53.4001C35.9 52.8001 35.4 52.3 34.8 52.1C34.4 52 33.9 51.9 33.5 52L33 50.8L31.6 51.4001L32 52.5C31.6 52.8 31.3 53.1 31.1 53.5C30.8 54.1 30.7 54.8 31 55.5C31.3 56.1 31.8 56.6001 32.5 56.9001C33.1 57.1001 33.9 57.1 34.5 56.8C34.8 56.7 35.2 56.7 35.5 56.8C35.8 56.9 36 57.1 36 57.3C36.1 57.5 36.1 57.8 35.9 58C35.8 58.3 35.5 58.5 35.2 58.6C34.9 58.7 34.5 58.7 34.2 58.6C34 58.5 33.8 58.4 33.7 58.1L32.3 58.7001C32.6 59.3001 33.1 59.8 33.8 60.1C34.1 60.2 34.4 60.2001 34.7 60.2001C34.8 60.2001 35 60.2001 35.1 60.2001L35.5 61.3L36.9 60.7001L36.5 59.6C36.9 59.3 37.2 59 37.4 58.6C37.7 58 37.8 57.2 37.5 56.6C37.2 55.9 36.7 55.4001 36 55.2001Z" fill="#FF833C"/>
<path d="M34.2999 47.5C33.1999 47.5 32.1999 47.7 31.1999 48.1C29.0999 48.9 27.4999 50.5 26.5999 52.6C25.6999 54.7 25.6999 57 26.4999 59.1C27.7999 62.3 30.8999 64.4 34.3999 64.4C35.4999 64.4 36.4999 64.2 37.4999 63.8C41.7999 62.1 43.9999 57.1 42.1999 52.8C40.8999 49.6 37.7999 47.5 34.2999 47.5ZM36.8999 62.4C36.0999 62.7 35.1999 62.9 34.2999 62.9C31.3999 62.9 28.8999 61.2 27.7999 58.5C27.0999 56.8 27.0999 54.9 27.8999 53.2C28.5999 51.5 29.9999 50.2 31.6999 49.5C32.4999 49.2 33.3999 49 34.2999 49C37.1999 49 39.6999 50.7 40.7999 53.4C42.1999 56.9 40.3999 61 36.8999 62.4Z" fill="#FF833C"/>
<path d="M36.5 25.1L35.9 24.7C32.1 22.3 34.1 18.2 34.2 18C34.9 16.4 35.7 15.4 36.7 15.1C37.8 14.8 38.9 15.5 38.9 15.6C43.1 18.3 47.3 18.2 48.8 18.1C49.4 19.3 51.3 22.3 53.7 23.1C54 24.4 55.1 27.9 57.3 29.3C58.3 29.9 59.3 30.1 60.5 29.7C60.8 29.7 61.7 29.4 62.2 28.5C62.8 27.4 62.5 25.9 61.5 23.9C61.2 23.1 57.7 14 52.7 11.1C49.4 9.70002 40.6 5.60002 39.1 3.70002C39 3.40002 38 2.00002 35.6 2.10002C35 1.20002 33.4 0.100018 30.8 0.700018H30.7C30.5 0.900018 12.4 8.30002 0 9.70002L0.2 11.2C12.4 9.80002 30.1 2.70002 31.2 2.20002C33.7 1.60002 34.4 3.00002 34.5 3.20002L34.7 3.70002L35.3 3.60002C37.3 3.40002 37.9 4.40002 37.9 4.40002L38 4.50002C39.9 7.20002 51 11.9 52.2 12.4C56.8 15 60.3 24.3 60.3 24.4V24.5C61.3 26.5 61.2 27.3 61 27.7C60.8 28.1 60.4 28.2 60.4 28.2H60.3C59.6 28.4 58.9 28.3 58.3 27.9C56.1 26.6 55.3 22.3 55.3 22.3L55 21.9L54.5 21.8C52.5 21.4 50.5 18.2 50 17L49.8 16.5L49.3 16.6C49.3 16.6 44.5 17.3 39.9 14.4C39.8 14.4 38.3 13.2 36.4 13.7C34.9 14.1 33.7 15.4 32.9 17.4C31.9 19.3 31.2 23.5 35.1 26L35.7 26.4C39.5 28.8 39.7 29 41.3 33.8C41.6 34.5 42.3 36.6 41.7 37.9C41.5 38.4 41 38.8 40.3 39C40 39 38.9 38.6 37.9 36C37.8 35.3 37.1 32.6 32.3 32.2C32.3 32.2 28.5 31.8 24.9 29.7L24.7 29.6H19H18.9L18.8 29.7C18.7 29.7 16 30.7 11.5 28C11 27.5 7.8 25.1 0.3 26.9L0.7 28.4C7.9 26.6 10.6 29.1 10.6 29.1L10.7 29.2C15.3 32.1 18.5 31.4 19.2 31.1H24.5C28.3 33.3 32.1 33.7 32.3 33.7C36.3 34 36.5 36.1 36.5 36.2V36.4C37.3 38.4 38.2 39.7 39.3 40.2C39.7 40.4 40 40.4 40.2 40.4C40.5 40.4 40.8 40.3 40.8 40.3C41.9 40 42.7 39.3 43.1 38.4C44.1 36.2 42.8 33.2 42.7 33.2C41 28.1 40.6 27.7 36.5 25.1Z" fill="#FF833C"/>
</svg>
