<svg width="65" height="82" viewBox="0 0 65 82" fill="none" xmlns="http://www.w3.org/2000/svg">
<g clip-path="url(#clip0_30_96)">
<path d="M31 19.8002C30.6 19.4002 30.4 19.0002 30.4 18.5002H28.9C28.9 19.4002 29.3 20.3002 30.1 21.0002C30.6 21.5002 31.3 21.8002 32 21.9002V24.0002H33.5V21.9002C34.2 21.8002 34.9001 21.5002 35.4001 21.0002C36.2001 20.3002 36.6 19.5002 36.6 18.5002C36.6 17.6002 36.2001 16.7002 35.4001 16.0002C34.7001 15.4002 33.7001 15.0002 32.7001 15.0002C32.1001 15.0002 31.5 14.8002 31 14.4002C30.6 14.0002 30.4 13.6002 30.4 13.1002C30.4 12.6002 30.6 12.1002 31 11.8002C31.9 11.0002 33.5001 11.0002 34.4001 11.8002C34.8001 12.2002 35 12.6002 35 13.1002H36.5C36.5 12.2002 36.1 11.3002 35.3 10.6002C34.8 10.1002 34.1001 9.9002 33.4001 9.7002V7.7002H31.9V9.8002C31.2 9.9002 30.5 10.2002 30 10.7002C29.2 11.3002 28.8 12.2002 28.8 13.2002C28.8 14.1002 29.2 15.0002 30 15.7002C30.7 16.3002 31.7001 16.7002 32.7001 16.7002C33.3001 16.7002 33.9001 16.9002 34.4001 17.3002C34.8001 17.7002 35 18.1002 35 18.6002C35 19.1002 34.8001 19.6002 34.4001 19.9002C33.5001 20.6002 31.9 20.6002 31 19.8002Z" fill="#FF833C"/>
<path d="M48.3001 39.7001H48.4001C48.5001 39.7001 48.6001 39.6001 48.7001 39.5001C50.9001 37.6001 52.6001 35.4001 53.5001 33.1001C53.5001 33.0001 53.5001 33.0001 53.5001 32.9001C53.8001 32.1001 54.0001 31.2001 54.2001 30.4001C54.3001 29.6001 54.0001 28.8001 53.4001 28.2001C53.4001 28.2001 53.3001 28.1001 53.2001 28.0001C53.1001 27.9001 52.9001 27.8001 52.8001 27.8001C52.8001 27.8001 52.9001 27.8001 52.9001 27.7001C51.8001 26.8001 50.4001 26.1001 48.8001 25.4001L48.7001 25.3001C47.5001 24.8001 46.2001 24.4001 44.7001 24.0001C45.4001 21.8001 45.8001 19.5001 45.8001 17.1001C45.8001 7.5001 39.9001 -0.399902 32.7001 -0.399902C25.5001 -0.399902 19.6001 7.4001 19.6001 17.1001C19.6001 19.5001 20.0001 21.8001 20.6001 23.9001C19.0001 24.3001 17.6001 24.7001 16.3001 25.3001C16.3001 25.3001 16.3001 25.3001 16.2001 25.3001C14.4001 26.0001 12.9001 26.9001 11.8001 27.8001C11.7001 27.8001 11.7001 27.9001 11.7001 27.9001C11.6001 27.9001 11.6001 28.0001 11.5001 28.0001C10.9001 28.5001 10.6001 29.3001 10.7001 30.2001C10.8001 31.0001 11.0001 31.8001 11.3001 32.7001C11.3001 32.8001 11.3001 32.9001 11.3001 33.0001C12.2001 35.3001 13.9001 37.5001 16.1001 39.4001C16.2001 39.5001 16.3001 39.5001 16.3001 39.5001C20.6001 43.0001 26.4001 45.1001 32.3001 45.1001C38.4001 45.2001 44.1001 43.2001 48.3001 39.7001ZM13.7001 28.4001C14.5001 27.8001 15.5001 27.3001 16.7001 26.8001H16.8001C21.1001 28.0001 26.6001 28.7001 32.5001 28.7001C38.5001 28.7001 44.1001 28.0001 48.4001 26.8001C48.4001 26.8001 48.4001 26.8001 48.4001 26.9001C49.5001 27.4001 50.5001 27.9001 51.3001 28.4001C47.3001 30.3001 40.1001 31.5001 32.5001 31.5001C24.9001 31.5001 17.7001 30.3001 13.7001 28.4001ZM43.9001 26.3001C44.0001 26.0001 44.1001 25.8001 44.2001 25.5001C44.7001 25.6001 45.3001 25.8001 45.8001 25.9001C45.2001 26.1001 44.5001 26.2001 43.9001 26.3001ZM32.7001 1.2001C39.1001 1.2001 44.3001 8.4001 44.3001 17.2001C44.3001 19.7001 43.9001 22.1001 43.1001 24.4001C42.8001 25.2001 42.5001 25.9001 42.1001 26.6001C39.2001 27.0001 35.9001 27.2001 32.6001 27.2001C29.4001 27.2001 26.4001 27.0001 23.5001 26.6001C23.1001 25.8001 22.7001 25.0001 22.4001 24.2001C21.6001 22.0001 21.2001 19.6001 21.2001 17.1001C21.1001 8.4001 26.3001 1.2001 32.7001 1.2001ZM21.2001 25.4001C21.3001 25.7001 21.5001 26.0001 21.6001 26.4001C20.8001 26.3001 20.0001 26.1001 19.3001 25.9001C19.9001 25.7001 20.5001 25.6001 21.2001 25.4001ZM12.3001 30.1001C12.3001 29.9001 12.3001 29.7001 12.4001 29.5001C16.5001 31.7001 24.1001 33.1001 32.5001 33.1001C40.9001 33.1001 48.5001 31.7001 52.6001 29.5001C52.7001 29.7001 52.7001 29.9001 52.7001 30.1001C52.6001 30.8001 52.4001 31.5001 52.2001 32.2001C48.4001 34.4001 40.7001 35.8001 32.5001 35.8001C24.2001 35.8001 16.4001 34.4001 12.7001 32.2001H12.8001C12.5001 31.4001 12.4001 30.8001 12.3001 30.1001ZM13.9001 34.4001C18.2001 36.2001 25.1001 37.3001 32.5001 37.3001C39.9001 37.3001 46.8001 36.2001 51.1001 34.4001C50.3001 35.7001 49.2001 37.0001 47.8001 38.2001C43.6001 39.4001 38.2001 40.0001 32.5001 40.0001C26.8001 40.0001 21.3001 39.3001 17.2001 38.2001C15.8001 37.1001 14.7001 35.8001 13.9001 34.4001ZM20.7001 40.7001C20.6001 40.7001 20.5001 40.6001 20.5001 40.6001C24.1001 41.3001 28.3001 41.6001 32.6001 41.6001C36.8001 41.6001 40.8001 41.3001 44.3001 40.6001C44.4001 40.6001 44.5001 40.6001 44.6001 40.5001C41.1001 42.5001 36.8001 43.7001 32.5001 43.7001C28.3001 43.7001 24.2001 42.6001 20.7001 40.7001Z" fill="#FF833C"/>
<path d="M55.5999 61.8H54.2V63.3H55.5999V61.8Z" fill="#FF833C"/>
<path d="M63.7999 28.9001C63.0999 28.3001 62.1999 28.1001 61.0999 28.3001C59.5999 28.5001 58.5999 30.0001 58.5999 32.1001V42.3001H60.0999V32.1001C60.0999 30.9001 60.5999 29.9001 61.2999 29.8001C61.6999 29.7001 62.2999 29.7001 62.7999 30.1001C63.1999 30.5001 63.4999 31.2001 63.4999 32.1001V47.5001C63.4999 48.5001 63.0999 49.4001 62.3999 50.1001L56.1999 56.3001C55.5999 56.9001 55.1999 57.8001 55.1999 58.6001V59.0001H44.5999V54.8001C44.5999 53.7001 45.0999 52.6001 45.8999 51.8001L54.1999 43.8001C54.4999 43.5001 54.9999 43.3001 55.4999 43.3001C55.9999 43.3001 56.3999 43.5001 56.6999 43.8001C56.9999 44.1001 57.1999 44.6001 57.1999 45.1001C57.1999 45.6001 56.9999 46.0001 56.6999 46.3001L52.7999 50.1001L53.8999 51.2001L57.7999 47.4001C58.3999 46.8001 58.7999 46.0001 58.7999 45.1001C58.7999 44.2001 58.4999 43.4001 57.8999 42.8001C57.2999 42.2001 56.4999 41.8001 55.5999 41.8001C54.6999 41.8001 53.8999 42.1001 53.2999 42.7001L44.9999 50.7001C43.8999 51.8001 43.2999 53.2001 43.2999 54.8001V59.0001H41.3999V65.3001H42.8999V60.5001H57.2999V65.3001H58.7999V59.0001H56.8999V58.6001C56.8999 58.1001 57.0999 57.7001 57.3999 57.3001L63.5999 51.1001C64.5999 50.1001 65.0999 48.8001 65.0999 47.4001V32.1001C64.9999 30.3001 64.2999 29.4001 63.7999 28.9001Z" fill="#FF833C"/>
<path d="M10.7999 61.8H9.3999V63.3H10.7999V61.8Z" fill="#FF833C"/>
<path d="M21.9 54.8001C21.9 53.3001 21.3 51.8001 20.2 50.7001L11.9 42.7001C10.6 41.4001 8.5 41.5001 7.3 42.8001C6.7 43.4001 6.4 44.3001 6.4 45.1001C6.4 46.0001 6.8 46.8001 7.4 47.4001L11.3 51.2001L12.4 50.1001L8.5 46.3001C8 46.0001 7.9 45.6001 7.8 45.1001C7.8 44.6001 8 44.2001 8.3 43.8001C9 43.1001 10.1 43.1001 10.8 43.8001L19.1 51.8001C19.9 52.6001 20.4 53.7001 20.4 54.8001V59.0001H9.8V58.6001C9.8 57.7001 9.5 56.9001 8.8 56.3001L2.6 50.1001C1.9 49.4001 1.5 48.5001 1.5 47.5001V32.1001C1.5 31.2001 1.7 30.5001 2.2 30.1001C2.6 29.7001 3.2 29.7001 3.7 29.8001C4.4 29.9001 4.9 30.8001 4.9 32.1001V42.3001H6.4V32.1001C6.4 30.1001 5.4 28.6001 3.9 28.3001C2.8 28.1001 1.9 28.3001 1.2 28.9001C0.7 29.4001 0 30.3001 0 32.1001V47.5001C0 48.9001 0.5 50.2001 1.5 51.2001L7.7 57.4001C8 57.7001 8.2 58.2001 8.2 58.7001V59.0001H6.3V65.3001H7.8V60.5001H22.2V65.3001H23.7V59.0001H21.8V54.8001H21.9Z" fill="#FF833C"/>
</g>
<defs>
<clipPath id="clip0_30_96">
<rect width="65" height="81.25" fill="white"/>
</clipPath>
</defs>
</svg>
