<svg width="26" height="32" viewBox="0 0 26 32" fill="none" xmlns="http://www.w3.org/2000/svg">
<g clip-path="url(#clip0_19_462)">
<path d="M18.6 5.8C18.6 4.65287 18.2598 3.5315 17.6225 2.57769C16.9852 1.62389 16.0794 0.880486 15.0196 0.441497C13.9598 0.00250921 12.7936 -0.11235 11.6685 0.111444C10.5434 0.335238 9.50993 0.887635 8.69878 1.69878C7.88764 2.50992 7.33524 3.54339 7.11145 4.66848C6.88765 5.79356 7.00251 6.95975 7.4415 8.01956C7.88049 9.07937 8.62389 9.98521 9.57769 10.6225C10.5315 11.2598 11.6529 11.6 12.8 11.6C14.3383 11.6 15.8135 10.9889 16.9012 9.90122C17.9889 8.81351 18.6 7.33825 18.6 5.8ZM12.8 10.8C11.8111 10.8 10.8444 10.5068 10.0222 9.95735C9.19991 9.40794 8.55904 8.62705 8.1806 7.71342C7.80217 6.79979 7.70315 5.79445 7.89608 4.82455C8.089 3.85464 8.56521 2.96373 9.26447 2.26447C9.96373 1.5652 10.8546 1.089 11.8246 0.896072C12.7945 0.703146 13.7998 0.802163 14.7134 1.1806C15.6271 1.55904 16.4079 2.1999 16.9574 3.02215C17.5068 3.84439 17.8 4.81109 17.8 5.8C17.8 6.45661 17.6707 7.10679 17.4194 7.71342C17.1681 8.32004 16.7998 8.87124 16.3355 9.33553C15.8712 9.79983 15.32 10.1681 14.7134 10.4194C14.1068 10.6707 13.4566 10.8 12.8 10.8Z" fill="#FF4F01"/>
<path d="M20.9741 15.8C20.9394 15.7052 20.8788 15.6221 20.7993 15.5599C20.7198 15.4977 20.6245 15.459 20.5241 15.448L19.5241 15.296L19.0761 14.344C19.0393 14.2462 18.9735 14.162 18.8876 14.1025C18.8017 14.0431 18.6996 14.0112 18.5951 14.0112C18.4906 14.0112 18.3886 14.0431 18.3027 14.1025C18.2168 14.162 18.151 14.2462 18.1141 14.344L17.6661 15.296L16.6661 15.448C16.5676 15.4607 16.4744 15.5003 16.3968 15.5623C16.3192 15.6244 16.2602 15.7066 16.2261 15.8C16.1965 15.8981 16.1949 16.0024 16.2214 16.1014C16.2479 16.2003 16.3015 16.2899 16.3761 16.36L17.1061 17.106L16.9321 18.166C16.9154 18.2479 16.9169 18.3325 16.9366 18.4137C16.9563 18.495 16.9937 18.5709 17.0461 18.636C17.1294 18.726 17.2413 18.7843 17.3627 18.8011C17.4841 18.8179 17.6076 18.7921 17.7121 18.728L18.6001 18.232L19.4841 18.718C19.573 18.7692 19.6736 18.7967 19.7761 18.798C19.8475 18.7983 19.9182 18.7831 19.9831 18.7534C20.048 18.7237 20.1057 18.6802 20.1521 18.626C20.2046 18.5609 20.242 18.485 20.2617 18.4037C20.2814 18.3225 20.2829 18.2379 20.2661 18.156L20.0921 17.096L20.8241 16.348C20.8967 16.279 20.9489 16.1914 20.9754 16.0949C21.0018 15.9983 21.0014 15.8963 20.9741 15.8ZM19.2381 16.836L19.3901 17.762L18.6001 17.32L17.8101 17.754L17.9621 16.83L17.3001 16.154L18.2121 16.014L18.6001 15.2L18.9881 16.024L19.9001 16.164L19.2381 16.836Z" fill="#FF4F01"/>
<path d="M8.4 11.6H9.644C9.23211 11.3749 8.84527 11.1068 8.49 10.8H8.4C4.876 10.8 2 13.73 2 17.332V18.8H2.8V17.332C2.8 14.172 5.316 11.6 8.4 11.6Z" fill="#FF4F01"/>
<path d="M23.6001 24.256V17.332C23.6001 13.73 20.7261 10.8 17.2001 10.8H17.1001C16.7448 11.1067 16.358 11.3749 15.9461 11.6H17.2001C20.2921 11.6 22.8001 14.172 22.8001 17.332V24.256C22.8014 24.3261 22.7889 24.3958 22.7633 24.4611C22.7377 24.5264 22.6994 24.586 22.6508 24.6365C22.6021 24.6871 22.544 24.7275 22.4797 24.7555C22.4154 24.7836 22.3462 24.7987 22.2761 24.8H13.7401C13.6653 25.0921 13.529 25.3649 13.3401 25.6H22.2781C22.6314 25.5963 22.9688 25.4528 23.2166 25.2009C23.4643 24.9491 23.6022 24.6093 23.6001 24.256Z" fill="#FF4F01"/>
<path d="M12.27 12.376C12.0013 12.3558 11.7341 12.319 11.47 12.266L10.814 16.666C11.1103 16.974 11.3314 17.3464 11.46 17.754L12.27 12.376Z" fill="#FF4F01"/>
<path d="M15.258 21.236C15.3095 21.1925 15.3491 21.1367 15.3732 21.0737C15.3973 21.0108 15.4052 20.9428 15.396 20.876L14.186 12.252C13.922 12.3084 13.6549 12.3484 13.386 12.372L14.564 20.772C14.6321 21.1675 14.5827 21.5743 14.422 21.942L15.258 21.236Z" fill="#FF4F01"/>
<path d="M12.466 19.868H10.778C10.8513 19.5762 10.8909 19.2769 10.896 18.976C10.844 18.488 10.724 17.346 9.83195 16.936C9.59501 16.8242 9.33096 16.7826 9.07113 16.8163C8.81129 16.85 8.56656 16.9575 8.36595 17.126C7.82995 17.572 7.85995 18.192 7.87595 18.526C7.87595 18.578 7.87595 18.926 7.87595 18.926C7.63282 19.4057 7.36582 19.873 7.07595 20.326L6.99395 20.462V20C6.99395 19.8939 6.95181 19.7922 6.87679 19.7172C6.80178 19.6421 6.70004 19.6 6.59395 19.6H4.59995C4.49386 19.6 4.39212 19.6421 4.31711 19.7172C4.24209 19.7922 4.19995 19.8939 4.19995 20V25.2C4.19995 25.3061 4.24209 25.4078 4.31711 25.4828C4.39212 25.5579 4.49386 25.6 4.59995 25.6H6.59995C6.68641 25.5994 6.77037 25.5709 6.83924 25.5186C6.9081 25.4663 6.95818 25.3931 6.98195 25.31C7.02595 25.31 7.21595 25.31 7.25795 25.31C7.40993 25.4195 7.57884 25.5032 7.75795 25.558C7.8276 25.5776 7.89959 25.5877 7.97195 25.588H11.674C11.8622 25.5887 12.0485 25.5495 12.2204 25.4729C12.3924 25.3962 12.5461 25.284 12.6715 25.1435C12.7968 25.0031 12.8909 24.8376 12.9476 24.658C13.0042 24.4785 13.022 24.289 13 24.102C13.2192 23.859 13.3404 23.5433 13.34 23.216C13.3398 23.1321 13.3317 23.0484 13.316 22.966C13.4921 22.7365 13.5877 22.4553 13.588 22.166C13.5881 22.0705 13.578 21.9753 13.558 21.882C13.7165 21.6581 13.8011 21.3903 13.8 21.116C13.8 20.4 13.226 19.868 12.466 19.868ZM6.19995 24.8H4.99995V20.4H6.19995V24.8ZM12.466 21.642H12.334C12.469 21.6579 12.5926 21.7254 12.6789 21.8305C12.7653 21.9355 12.8075 22.0699 12.7969 22.2054C12.7863 22.341 12.7237 22.4672 12.6221 22.5575C12.5204 22.6478 12.3878 22.6953 12.252 22.69H12.028C12.1623 22.7006 12.2875 22.7622 12.3779 22.8621C12.4683 22.962 12.5171 23.0927 12.5143 23.2274C12.5115 23.3621 12.4573 23.4906 12.3628 23.5867C12.2683 23.6827 12.1406 23.739 12.006 23.744H11.698C11.8323 23.7548 11.9575 23.8165 12.0478 23.9166C12.1381 24.0167 12.1867 24.1476 12.1836 24.2823C12.1806 24.4171 12.1261 24.5456 12.0313 24.6415C11.9365 24.7374 11.8087 24.7934 11.674 24.798H7.97995C7.79395 24.746 7.65795 24.598 7.47995 24.528C7.43935 24.5146 7.39669 24.5085 7.35395 24.51C7.23607 24.5174 7.11783 24.5174 6.99995 24.51V21.47C6.99995 21.47 7.52595 21.148 7.54195 21.112C7.60995 20.962 8.68195 19.332 8.68195 19.01V18.678C8.68195 18.35 8.59595 17.978 8.88195 17.742C8.9662 17.6688 9.07019 17.6222 9.18086 17.608C9.29153 17.5937 9.40393 17.6125 9.50395 17.662C9.95795 17.862 10.06 18.624 10.104 19.062C10.128 19.294 9.79595 20.582 9.73195 20.662H12.466C12.762 20.662 13 20.816 13 21.108C13.0005 21.1783 12.987 21.248 12.9604 21.313C12.9337 21.378 12.8944 21.4371 12.8447 21.4868C12.795 21.5365 12.736 21.5758 12.6709 21.6024C12.6059 21.6291 12.5362 21.6425 12.466 21.642Z" fill="#FF4F01"/>
<path d="M0.4 23C0.620914 23 0.8 22.8209 0.8 22.6C0.8 22.3791 0.620914 22.2 0.4 22.2C0.179086 22.2 0 22.3791 0 22.6C0 22.8209 0.179086 23 0.4 23Z" fill="#FF4F01"/>
<path d="M0.4 21.4H3C3.10609 21.4 3.20783 21.3579 3.28284 21.2828C3.35786 21.2078 3.4 21.1061 3.4 21C3.4 20.8939 3.35786 20.7922 3.28284 20.7172C3.20783 20.6421 3.10609 20.6 3 20.6H0.4C0.293913 20.6 0.192172 20.6421 0.117157 20.7172C0.0421427 20.7922 0 20.8939 0 21C0 21.1061 0.0421427 21.2078 0.117157 21.2828C0.192172 21.3579 0.293913 21.4 0.4 21.4Z" fill="#FF4F01"/>
<path d="M0.4 24.6H3C3.10609 24.6 3.20783 24.5579 3.28284 24.4828C3.35786 24.4078 3.4 24.3061 3.4 24.2C3.4 24.0939 3.35786 23.9922 3.28284 23.9172C3.20783 23.8421 3.10609 23.8 3 23.8H0.4C0.293913 23.8 0.192172 23.8421 0.117157 23.9172C0.0421427 23.9922 0 24.0939 0 24.2C0 24.3061 0.0421427 24.4078 0.117157 24.4828C0.192172 24.5579 0.293913 24.6 0.4 24.6Z" fill="#FF4F01"/>
<path d="M3.0001 22.2H2.0001C1.89401 22.2 1.79227 22.2421 1.71726 22.3172C1.64224 22.3922 1.6001 22.4939 1.6001 22.6C1.6001 22.7061 1.64224 22.8078 1.71726 22.8828C1.79227 22.9579 1.89401 23 2.0001 23H3.0001C3.10618 23 3.20793 22.9579 3.28294 22.8828C3.35795 22.8078 3.4001 22.7061 3.4001 22.6C3.4001 22.4939 3.35795 22.3922 3.28294 22.3172C3.20793 22.2421 3.10618 22.2 3.0001 22.2Z" fill="#FF4F01"/>
</g>
<defs>
<clipPath id="clip0_19_462">
<rect width="25.6" height="32" fill="white"/>
</clipPath>
</defs>
</svg>
