<svg width="195" height="629" viewBox="0 0 195 629" fill="none" xmlns="http://www.w3.org/2000/svg">
<path d="M92.008 576.592H88.5574L70.0721 576.826C70.0721 576.826 66.1286 594.878 63.9103 602.38C63.9103 602.848 63.4174 604.021 63.171 604.958C62.9245 606.365 62.678 607.537 62.678 608.944C63.1709 615.742 65.6356 621.603 72.2903 624.651C79.438 627.933 84.8603 631.215 92.2545 624.651C99.6486 618.087 100.881 614.101 97.9233 602.614C94.7192 591.361 93.7333 576.826 92.008 576.592Z" fill="#4B44BE"/>
<path d="M169.647 599.098C156.83 595.347 148.204 578.702 148.204 578.702L126.268 577.529C126.268 577.529 125.035 594.409 124.542 602.848C123.803 614.101 125.775 619.259 133.662 618.556C144.014 617.852 185.914 621.369 192.568 617.384C201.195 611.992 181.477 602.614 169.647 599.098Z" fill="#4B44BE"/>
<path d="M38.7698 278.39V303.24L70.3181 576.826H92.7469C92.7469 576.826 100.387 389.278 100.387 382.714C100.387 376.15 102.359 355.754 102.359 355.754C102.359 355.754 130.457 432.883 130.95 439.213C131.443 445.542 126.267 578.467 126.267 578.467L148.696 579.405C148.696 579.405 168.167 489.616 168.167 481.177C168.167 472.737 174.822 428.429 173.836 419.989C172.85 411.549 156.336 279.328 156.336 279.328L122.077 278.39H38.7698Z" fill="url(#paint0_linear_19_197)"/>
<path d="M183.449 249.555L183.202 249.086C183.202 249.555 183.202 249.789 183.449 249.555ZM117.888 225.642L105.318 230.566L104.578 246.976L118.381 252.134C118.381 252.134 133.415 251.665 133.415 251.43C133.415 250.727 139.331 250.961 142.042 252.602L188.871 237.364L190.596 226.815C190.596 226.815 194.047 240.177 178.519 213.217L117.888 225.642ZM173.59 171.488L172.604 166.096L170.139 165.627L173.59 171.488ZM87.3252 28.4825C81.6563 30.8269 78.6987 38.7977 78.6987 38.7977C78.6987 38.7977 75.9875 37.1566 75.9875 41.6109C75.9875 46.0651 78.4522 56.3803 79.9311 58.9591C82.8887 63.4133 85.5999 67.8676 88.0646 72.5563C90.2828 77.245 89.5434 86.8568 87.0787 88.2634C84.614 89.6701 42.2211 126.007 42.2211 126.007L7.22217 228.456V232.441L12.6446 234.316L18.3134 238.771C18.8063 238.771 25.9539 242.522 26.9398 243.225C32.6087 245.804 38.524 247.914 44.4393 249.086C48.3828 249.789 65.8822 249.555 65.8822 249.555L83.6281 249.086L80.6704 227.518L54.2981 227.283L18.3134 225.642L54.791 145.934L169.646 165.393C149.189 130.227 126.268 90.8422 124.296 86.6224C122.571 83.3403 124.296 75.1351 125.282 70.9152C126.268 67.1643 128.239 62.2411 129.965 60.8345C131.936 59.4279 135.141 53.0982 135.141 50.5194C135.141 47.9406 135.88 37.1566 133.662 39.5009C132.922 40.2043 130.211 36.2189 129.225 31.999C127.746 26.1382 123.31 21.9183 118.381 18.1674C118.381 18.1674 92.994 26.1382 87.3252 28.2481" fill="url(#paint1_linear_19_197)"/>
<path d="M43.2066 104.205C37.5377 107.722 32.6083 112.645 30.6365 118.74C28.6648 125.07 15.3553 173.363 13.6301 179.693C9.19358 194.697 6.72888 198.917 1.553 216.734C-4.85524 238.536 9.68652 241.818 24.7212 244.866C40.2489 248.148 40.2489 249.555 43.9459 249.555C44.4389 249.555 62.9242 253.071 63.4171 243.225C63.9101 236.895 62.6777 227.049 60.213 227.283C54.5442 227.987 36.3053 223.532 35.3195 222.829C34.0871 222.126 39.263 208.529 42.2207 200.089C44.4389 193.759 52.8189 167.971 54.7906 163.283C55.7765 160.704 50.1077 188.367 46.6571 215.562C46.6571 216.499 45.1783 227.049 45.6713 227.049C49.8613 227.049 61.1989 227.283 64.896 227.518C80.9166 229.393 84.1207 236.661 83.1348 242.522C81.4095 252.602 42.2206 247.914 42.4671 249.32C42.4671 249.32 35.8124 278.156 39.5095 280.031C42.7136 281.672 86.5854 299.021 95.9513 302.303C96.9372 302.771 98.1695 302.303 98.416 301.13L104.331 284.954C104.331 284.72 104.578 284.72 104.824 284.72C104.824 284.72 105.071 284.72 105.071 284.954L110.74 302.771C110.74 303.24 111.232 303.709 111.725 303.709H114.19L162.991 293.629C162.991 293.629 162.745 275.343 162.745 251.899C162.745 249.555 162.252 240.881 160.527 242.522C158.801 244.163 118.134 249.32 113.697 247.445C104.331 243.694 106.796 234.316 110 230.566C113.697 226.111 161.759 224.001 162.005 220.719C162.745 206.419 161.512 168.675 160.773 173.363C159.541 180.396 131.443 219.078 131.443 225.877C131.443 232.675 130.95 249.555 130.95 249.555L177.04 246.273C177.04 246.273 192.568 241.115 193.8 232.675C195.279 224.236 193.554 220.485 192.814 207.825C192.321 199.854 180.491 151.561 177.04 137.964C176.547 135.854 176.301 133.744 176.054 131.634C175.561 126.007 173.343 112.879 160.527 107.018C144.753 99.7507 132.182 94.1243 128.978 94.1243C126.021 94.1243 117.887 111.004 113.697 115.927C111.725 118.037 112.218 119.209 109.754 122.257C108.521 123.898 106.057 124.132 104.331 123.194C103.838 122.96 103.592 122.491 103.345 122.257C101.867 120.381 100.881 118.271 99.6483 116.161C97.6766 112.645 83.1348 92.0144 83.1348 92.0144C83.1348 92.0144 48.8754 100.454 43.2066 104.205Z" fill="url(#paint2_linear_19_197)"/>
<path d="M118.38 18.4018C118.38 18.4018 87.3251 29.4203 85.1069 31.0613C82.8886 32.7023 78.6986 38.7977 78.6986 38.7977C78.6986 38.7977 76.4804 37.6255 75.9874 40.6731C75.9874 40.6731 72.7833 34.3434 72.5368 31.0613C72.0439 27.5448 72.5368 18.6362 78.4521 12.7754C84.3674 6.91449 96.4445 -1.05628 103.839 0.115895C111.233 1.05363 114.437 1.99137 119.12 6.44563C123.803 10.8999 127.746 12.3065 129.225 12.7754C130.704 13.4787 135.88 17.2296 136.866 24.0283C137.852 30.8269 135.387 44.6585 135.387 44.6585C135.387 44.6585 136.126 39.2665 133.908 40.9076C132.429 42.0797 129.965 37.1566 129.225 34.109C127.993 31.2957 120.106 19.3396 118.38 18.4018Z" fill="url(#paint3_linear_19_197)"/>
<g opacity="0.07">
<g opacity="0.07">
<g opacity="0.07">
<g opacity="0.07">
<g opacity="0.07">
<path opacity="0.07" d="M128.732 93.8899C128.485 93.4211 132.183 95.7654 127.993 92.9522C122.077 88.9668 125.035 72.3219 125.035 72.3219C122.817 76.7762 119.12 80.0583 114.437 81.6993C107.043 84.2781 104.824 82.4026 116.162 88.7324C127.5 95.0621 121.584 97.172 120.845 105.377" fill="black"/>
</g>
</g>
</g>
</g>
</g>
<g opacity="0.07">
<g opacity="0.07">
<g opacity="0.07">
<g opacity="0.07">
<g opacity="0.07">
<path opacity="0.07" d="M151.654 152.733L167.182 208.529C167.182 208.529 167.182 218.375 163.978 220.016C161.02 221.422 151.161 222.36 148.943 223.298C146.725 224.236 123.063 228.924 129.225 220.954C130.704 219.078 162.745 208.528 148.45 197.276C134.155 186.023 136.619 170.55 143.52 159.766C150.422 148.982 148.943 139.839 148.943 139.839L151.654 152.733Z" fill="black"/>
</g>
</g>
</g>
</g>
</g>
<g opacity="0.07">
<g opacity="0.07">
<g opacity="0.07">
<g opacity="0.07">
<g opacity="0.07">
<path opacity="0.07" d="M86.093 299.724C86.093 299.724 72.7836 367.241 79.6848 394.201C90.283 435.227 75.0018 490.554 75.0018 517.045C75.0018 534.393 82.1495 581.984 82.6424 601.442C82.6424 607.303 87.3254 618.556 83.8748 621.369C82.396 622.541 74.016 619.962 69.333 617.852C66.8683 616.68 65.3894 614.336 65.8824 611.757L68.5936 600.27L72.5371 585.031L44.686 337.937C44.686 337.937 35.813 282.845 40.7424 282.845C45.9183 282.376 86.093 299.724 86.093 299.724Z" fill="black"/>
</g>
</g>
</g>
</g>
</g>
<path d="M73.277 208.763L125.775 215.093C126.761 215.327 127.501 216.265 127.501 217.437L126.022 262.449C126.022 263.855 125.036 265.731 123.557 265.262L71.3052 255.65C70.3193 255.416 69.5799 254.478 69.5799 253.54L69.3335 248.617L75.0023 247.21C76.4811 246.742 77.96 246.038 78.9458 245.335C79.1923 245.1 79.4388 244.866 79.6852 244.632L80.9176 242.991C81.4105 242.522 81.4106 241.818 81.4106 241.115C81.1641 240.177 80.9176 238.771 80.6711 237.833C80.6711 237.599 80.4247 237.364 80.4247 237.13L79.1923 234.551C78.6994 233.379 77.7135 232.441 76.2346 231.738L75.4953 231.269L69.8264 228.456L70.3194 210.873C70.3194 209.701 71.3052 208.763 72.7841 208.763C73.277 208.763 73.277 208.763 73.277 208.763Z" fill="white"/>
<defs>
<linearGradient id="paint0_linear_19_197" x1="38.6529" y1="428.738" x2="173.839" y2="428.738" gradientUnits="userSpaceOnUse">
<stop stop-color="#4F68CA"/>
<stop offset="1" stop-color="#5ACEED"/>
</linearGradient>
<linearGradient id="paint1_linear_19_197" x1="7.31213" y1="135.489" x2="190.827" y2="135.489" gradientUnits="userSpaceOnUse">
<stop stop-color="#F87B58"/>
<stop offset="0.41" stop-color="#F89453"/>
<stop offset="0.71" stop-color="#F8C548"/>
<stop offset="1" stop-color="#F89C51"/>
</linearGradient>
<linearGradient id="paint2_linear_19_197" x1="0.0337502" y1="197.799" x2="194.01" y2="197.799" gradientUnits="userSpaceOnUse">
<stop stop-color="#E1A1ED"/>
<stop offset="1" stop-color="#7658F4"/>
</linearGradient>
<linearGradient id="paint3_linear_19_197" x1="72.3641" y1="22.1889" x2="136.937" y2="22.1889" gradientUnits="userSpaceOnUse">
<stop stop-color="#5ACEED"/>
<stop offset="0.55" stop-color="#4F68CA"/>
<stop offset="1" stop-color="#5282D3"/>
</linearGradient>
</defs>
</svg>
