<svg width="488" height="377" viewBox="0 0 488 377" fill="none" xmlns="http://www.w3.org/2000/svg">
<g clip-path="url(#clip0_26_318)">
<path d="M279.622 193.39C279.622 193.39 363.175 269.746 344.356 295.198C329.159 315.772 288.297 330.193 273.219 334.97C269.6 336.111 265.68 335.817 262.272 334.147L171.614 289.858C170.796 289.454 170.127 288.8 169.706 287.99C169.285 287.18 169.134 286.257 169.274 285.355C169.414 284.453 169.839 283.619 170.486 282.975C171.133 282.331 171.968 281.91 172.871 281.774C191.394 279.003 222.648 272.878 231.803 262.004C245.088 246.234 182.562 185.094 182.562 185.094L279.622 193.39Z" fill="#68E1FD"/>
<path d="M279.622 193.39C279.622 193.39 363.175 269.746 344.356 295.198C329.159 315.772 288.297 330.193 273.219 334.97C269.6 336.111 265.68 335.817 262.272 334.147L171.614 289.858C170.796 289.454 170.127 288.8 169.706 287.99C169.285 287.18 169.134 286.257 169.274 285.355C169.414 284.453 169.839 283.619 170.486 282.975C171.133 282.331 171.968 281.91 172.871 281.774C191.394 279.003 222.648 272.878 231.803 262.004C245.088 246.234 182.562 185.094 182.562 185.094L279.622 193.39Z" fill="url(#paint0_linear_26_318)"/>
<path d="M280.176 187.578C280.176 187.578 363.72 263.935 344.91 289.387C329.704 309.961 288.851 324.382 273.728 329.158C270.108 330.3 266.188 330.006 262.78 328.336L172.123 284.065C171.304 283.662 170.635 283.007 170.214 282.197C169.793 281.387 169.642 280.464 169.782 279.562C169.922 278.66 170.347 277.826 170.994 277.182C171.641 276.538 172.476 276.118 173.379 275.982C191.902 273.21 223.156 267.085 232.311 256.211C245.596 240.441 183.07 179.301 183.07 179.301L280.176 187.578Z" fill="#68E1FD"/>
<path d="M225.946 262.419L319.736 311.383C319.736 311.383 334.258 303.069 336.753 297.276C339.247 291.484 245.042 247.481 245.042 247.481L232.312 256.193L225.946 262.419Z" fill="url(#paint1_linear_26_318)"/>
<path d="M337.288 306.7L142.707 208.31C134.171 203.995 128.914 196.013 128.914 187.384V30.1914C128.914 11.5943 151.899 -0.0369177 170.284 9.26625L364.893 107.693C373.429 112.008 378.686 119.99 378.686 128.618V285.765C378.658 304.39 355.654 315.994 337.288 306.7Z" fill="#68E1FD"/>
<path d="M378.668 128.628V285.775C378.668 296.676 370.769 305.175 360.532 308.474C352.857 310.965 344.509 310.331 337.298 306.709L142.698 208.31C134.171 203.986 128.914 196.004 128.914 187.385V30.2008C128.914 22.3758 132.979 15.798 139.076 11.5021C143.594 8.33929 148.885 6.46102 154.385 6.06731C159.886 5.6736 165.39 6.7792 170.312 9.26636L364.893 107.693C373.402 112.017 378.668 119.98 378.668 128.628Z" fill="url(#paint2_linear_26_318)"/>
<path d="M370.722 132.6V289.747C370.722 297.591 366.639 304.168 360.56 308.474C352.885 310.965 344.537 310.331 337.325 306.709L142.698 208.31C134.171 203.986 128.914 196.004 128.914 187.385V30.2008C128.914 22.3758 132.979 15.798 139.076 11.5021C142.887 10.2459 146.907 9.75267 150.908 10.0507C154.909 10.3487 158.812 11.4321 162.394 13.2389L356.939 111.666C365.466 115.989 370.722 123.953 370.722 132.6Z" fill="url(#paint3_linear_26_318)"/>
<path d="M174.497 136.887L343.885 222.805C344.962 223.355 345.849 224.216 346.429 225.278C347.009 226.339 347.256 227.551 347.137 228.755C347.042 229.718 346.716 230.644 346.186 231.454C345.656 232.264 344.938 232.934 344.093 233.407C343.248 233.88 342.302 234.141 341.334 234.169C340.366 234.197 339.406 233.991 338.536 233.568L151.29 142.855C150.092 142.275 149.12 141.313 148.528 140.121C147.936 138.928 147.757 137.573 148.019 136.268L148.648 133.09C148.816 132.245 149.163 131.447 149.667 130.749C150.171 130.051 150.819 129.469 151.567 129.043C152.315 128.617 153.146 128.357 154.004 128.281C154.862 128.204 155.725 128.313 156.537 128.6C156.537 128.6 174.257 136.767 174.497 136.887Z" fill="url(#paint4_linear_26_318)"/>
<path d="M298.376 199.829L164.547 267.528C155.835 271.944 140.628 271.381 130.577 266.309L49.5554 225.336C42.7004 221.863 40.0212 217.206 41.7581 213.188C42.8205 215.756 45.4535 218.269 49.5554 220.357L117.514 254.724L127.362 259.676L130.577 261.32C130.924 261.514 131.285 261.681 131.658 261.819C132.102 262.047 132.559 262.25 133.025 262.429C133.443 262.617 133.872 262.78 134.309 262.918C134.609 263.044 134.918 263.145 135.233 263.223C135.797 263.417 136.379 263.602 136.97 263.768C137.548 263.962 138.137 264.12 138.735 264.24C139.342 264.408 139.959 264.54 140.582 264.637C141.802 264.868 143.049 265.08 144.278 265.228C144.647 265.274 145.026 265.32 145.423 265.339C145.821 265.357 146.347 265.431 146.855 265.459C153.433 265.856 159.918 264.914 164.547 262.567L293.442 197.362L298.376 199.829Z" fill="#68E1FD"/>
<path d="M298.376 199.829L164.547 267.528C155.835 271.944 140.628 271.381 130.577 266.309L49.5554 225.336C42.7004 221.863 40.0212 217.206 41.7581 213.188C42.8205 215.756 45.4535 218.269 49.5554 220.357L117.514 254.724L127.362 259.676L130.577 261.32C130.924 261.514 131.285 261.681 131.658 261.819C132.101 262.032 132.582 262.244 133.025 262.429C133.443 262.617 133.872 262.78 134.309 262.918C134.623 263.039 134.928 263.131 135.233 263.223C135.797 263.417 136.379 263.602 136.97 263.768C137.561 263.935 138.143 264.092 138.735 264.24C139.326 264.387 139.954 264.517 140.582 264.637C141.802 264.868 143.049 265.08 144.278 265.228C144.647 265.274 145.054 265.32 145.423 265.339C145.793 265.357 146.347 265.431 146.855 265.459C153.433 265.856 159.918 264.914 164.547 262.567L293.442 197.362L298.376 199.829Z" fill="url(#paint5_linear_26_318)"/>
<path d="M293.442 197.362L164.547 262.567C157.101 266.355 144.906 266.494 135.233 263.223C134.003 262.861 132.806 262.391 131.658 261.819C131.285 261.681 130.924 261.514 130.577 261.32L127.362 259.676L117.514 254.724L49.5554 220.32C45.4535 218.232 42.8205 215.7 41.7581 213.151C40.2615 209.455 41.9706 205.76 47.1441 203.127L175.162 138.365L261.727 181.509L279.28 190.276L293.442 197.362Z" fill="#68E1FD"/>
<path d="M84.0889 220.477C83.8949 222.86 85.447 225.096 87.4517 226.454C89.5294 227.665 91.8073 228.494 94.1773 228.902C109.495 232.505 125.265 236.117 140.823 233.734C142.028 233.668 143.176 233.2 144.084 232.404C145.008 231.369 145.081 229.798 145.673 228.514C146.911 225.798 150.292 224.819 153.304 224.819C156.315 224.819 159.336 225.512 162.228 224.763C165.12 224.015 167.771 221.068 166.736 218.223C166.071 216.43 164.214 215.451 162.478 214.638C147.755 207.821 131.675 204.444 115.454 204.762C108.691 204.947 105.605 207.072 99.9329 210.046C95.3783 212.439 84.634 213.853 84.0889 220.477Z" fill="url(#paint6_linear_26_318)"/>
<path d="M261.727 181.555L279.298 190.313L135.224 263.232L134.873 263.417L131.658 261.819L127.353 259.676L117.394 254.77L117.514 254.724L261.727 181.555Z" fill="url(#paint7_linear_26_318)"/>
<path d="M345.381 156.888L344.956 157.1C343.9 156.288 342.768 155.579 341.575 154.985L345.381 156.888Z" fill="url(#paint8_linear_26_318)"/>
<path d="M345.381 156.888L344.956 157.1C343.9 156.288 342.768 155.579 341.575 154.985L345.381 156.888Z" fill="#68E1FD"/>
<path d="M370.722 274.882V289.747C370.722 297.591 366.639 304.168 360.56 308.474C352.885 310.965 344.537 310.331 337.325 306.709L142.698 208.31C134.171 203.986 128.914 196.004 128.914 187.385V152.472L129.782 151.807L370.722 274.882Z" fill="url(#paint9_linear_26_318)"/>
<path d="M289.84 163.965L201.612 118.798C192.863 114.317 185.398 102.169 184.983 91.5906L184.761 86.5094C184.308 75.959 191.034 71.0441 199.783 75.5248L288.01 120.692C296.759 125.163 304.224 137.321 304.64 147.899L304.861 152.98C305.314 163.521 298.588 168.446 289.84 163.965Z" fill="#68E1FD"/>
<path d="M214.999 112.774C215.105 111.916 215.151 111.052 215.137 110.188V100.45C215.143 99.5461 215.097 98.6423 214.999 97.7434C215.812 98.2515 216.44 98.6673 217.558 99.2862L221.373 101.503C224.828 103.499 226.722 106.317 226.722 109.449C226.722 112.58 224.736 113.403 221.355 111.444L218.583 109.846V112.146C218.583 113.072 218.629 113.997 218.722 114.918L214.999 112.774ZM221.198 108.294C222.417 108.996 223.138 108.71 223.138 107.472C223.12 106.84 222.93 106.226 222.588 105.695C222.246 105.164 221.765 104.737 221.198 104.46L218.602 102.991V106.825L221.198 108.294Z" fill="white"/>
<path d="M243.989 129.598C243.89 128.864 243.751 128.136 243.573 127.417L243.102 125.57L238.132 122.687L237.67 123.944C237.454 124.49 237.306 125.061 237.227 125.644L233.152 123.315C233.485 122.774 233.763 122.202 233.984 121.606L237.753 112.959C238.015 112.435 238.208 111.879 238.326 111.305L242.88 113.948C243.036 114.722 243.233 115.486 243.472 116.239L247.25 129.265C247.583 130.411 247.86 131.316 248.091 131.953L243.989 129.598ZM240.589 115.74L238.973 120.202L242.252 122.105L240.589 115.74Z" fill="white"/>
<path d="M263.057 137.995C263.049 138.921 263.095 139.847 263.196 140.767L259.39 138.559C259.488 137.7 259.534 136.836 259.528 135.972V132.646L255.528 123.519C255.214 122.77 254.826 121.957 254.133 120.525L258.54 123.084C258.748 123.894 259.023 124.685 259.362 125.45L261.293 130.226L263.224 127.713C263.588 127.293 263.861 126.802 264.027 126.272L268.443 128.859C267.935 129.32 267.27 129.967 267.048 130.226L263.057 134.716V137.995Z" fill="white"/>
<path d="M106.446 181.518L105.919 181.269L109.3 174.229C109.623 173.467 110.052 172.754 110.575 172.113C111.106 171.516 111.785 171.07 112.543 170.82C112.719 170.759 112.903 170.725 113.088 170.718C113.388 170.742 113.671 170.866 113.892 171.069C114.567 171.759 114.965 172.673 115.01 173.638C115.323 175.93 115.232 178.259 114.742 180.52L114.169 180.4C114.65 178.207 114.741 175.946 114.437 173.721C114.409 172.897 114.08 172.112 113.513 171.513C113.395 171.392 113.238 171.317 113.07 171.3C112.959 171.302 112.849 171.324 112.746 171.365C112.083 171.584 111.49 171.976 111.028 172.501C110.543 173.101 110.145 173.767 109.846 174.478L106.446 181.518Z" fill="#68E1FD"/>
<path d="M116.451 179.31C116.531 182.328 116.648 185.349 116.802 188.373C116.857 192.512 117.435 196.628 118.521 200.623C118.626 200.846 118.686 201.087 118.697 201.333C118.709 201.579 118.67 201.824 118.585 202.055C118.366 202.358 118.06 202.586 117.708 202.711C114.326 204.272 110.871 205.843 107.176 206.277C103.944 206.508 100.695 206.293 97.5214 205.64C97.3966 205.628 97.2763 205.587 97.1704 205.52C96.9671 205.353 97.0041 205.03 97.0595 204.771C97.7894 201.205 97.3182 197.491 97.854 193.888C98.3899 190.285 99.9789 186.867 101.549 183.532C102.233 182.082 103.009 182.082 104.57 181.758L110.224 180.594C110.742 180.483 116.451 179.467 116.451 179.31Z" fill="#68E1FD"/>
<path d="M116.451 179.31C116.531 182.328 116.648 185.349 116.802 188.373C116.857 192.512 117.435 196.628 118.521 200.623C118.626 200.846 118.686 201.087 118.697 201.333C118.709 201.579 118.67 201.824 118.585 202.055C118.366 202.358 118.06 202.586 117.708 202.711C114.326 204.272 110.871 205.843 107.176 206.277C103.944 206.508 100.695 206.293 97.5214 205.64C97.3966 205.628 97.2763 205.587 97.1704 205.52C96.9671 205.353 97.0041 205.03 97.0595 204.771C97.7894 201.205 97.3182 197.491 97.854 193.888C98.3899 190.285 99.9789 186.867 101.549 183.532C102.233 182.082 103.009 182.082 104.57 181.758L110.224 180.594C110.742 180.483 116.451 179.467 116.451 179.31Z" fill="url(#paint10_linear_26_318)"/>
<path d="M120.258 136.111C118.53 136.407 117.431 138.079 116.562 139.594C115.145 141.849 113.96 144.242 113.024 146.735C112.243 149.301 111.76 151.949 111.583 154.625C111.259 158.071 111.056 161.517 110.973 164.981C110.973 166.071 111.047 167.383 112.008 167.919C112.382 168.091 112.8 168.145 113.206 168.074C113.612 168.003 113.986 167.811 114.28 167.522C114.859 166.928 115.284 166.202 115.518 165.406C116.442 162.893 116.802 160.214 117.809 157.748C118.447 156.168 119.325 154.699 120.036 153.128C122.439 147.589 122.605 141.335 120.498 135.677L120.258 136.111Z" fill="#68E1FD"/>
<path d="M120.258 136.111C118.53 136.407 117.431 138.079 116.562 139.594C115.145 141.849 113.96 144.242 113.024 146.735C112.243 149.301 111.76 151.949 111.583 154.625C111.259 158.071 111.056 161.517 110.973 164.981C110.973 166.071 111.047 167.383 112.008 167.919C112.382 168.091 112.8 168.145 113.206 168.074C113.612 168.003 113.986 167.811 114.28 167.522C114.859 166.928 115.284 166.202 115.518 165.406C116.442 162.893 116.802 160.214 117.809 157.748C118.447 156.168 119.325 154.699 120.036 153.128C122.439 147.589 122.605 141.335 120.498 135.677L120.258 136.111Z" fill="url(#paint11_linear_26_318)"/>
<path d="M110.576 170.81C110.488 171.808 110.694 172.81 111.167 173.693C111.406 174.132 111.772 174.49 112.217 174.719C112.662 174.948 113.165 175.038 113.662 174.977C114.175 174.846 114.627 174.542 114.941 174.116C115.256 173.69 115.414 173.169 115.389 172.64C115.329 172.217 115.329 171.788 115.389 171.365C115.445 171.143 115.565 170.94 115.62 170.718C115.805 169.97 115.269 169.231 115.177 168.464C115.084 167.697 115.343 167.06 115.038 166.45C114.655 165.973 114.115 165.647 113.515 165.531C112.915 165.414 112.292 165.514 111.758 165.812C110.724 166.625 110.613 169.628 110.576 170.81Z" fill="#F3A984"/>
<path d="M109.809 182.442L109.255 182.275L111.463 174.783C111.658 173.979 111.969 173.207 112.386 172.492C112.815 171.819 113.41 171.268 114.114 170.894C114.278 170.803 114.456 170.741 114.641 170.709C114.937 170.681 115.234 170.756 115.481 170.921C116.266 171.492 116.81 172.336 117.006 173.286C117.681 175.499 117.966 177.813 117.846 180.123H117.264C117.383 177.881 117.108 175.636 116.451 173.49C116.287 172.685 115.838 171.966 115.186 171.466C115.051 171.363 114.883 171.314 114.715 171.328C114.597 171.346 114.484 171.387 114.382 171.448C113.769 171.772 113.25 172.25 112.876 172.834C112.498 173.51 112.213 174.234 112.026 174.986L109.809 182.442Z" fill="#68E1FD"/>
<path d="M119.324 178.663C119.897 181.638 120.507 184.604 121.172 187.56C121.898 191.639 123.139 195.61 124.867 199.376C125.008 199.579 125.106 199.807 125.157 200.048C125.208 200.289 125.21 200.538 125.163 200.78C124.998 201.118 124.73 201.393 124.396 201.566C121.311 203.644 118.16 205.76 114.576 206.776C111.424 207.523 108.185 207.834 104.949 207.7C104.823 207.715 104.696 207.696 104.58 207.644C104.349 207.506 104.339 207.192 104.349 206.924C104.506 203.284 103.425 199.699 103.425 196.059C103.425 192.419 104.349 188.779 105.393 185.241C105.836 183.698 106.603 183.578 108.09 183.005L113.476 180.954C113.883 180.742 119.361 178.83 119.324 178.663Z" fill="#68E1FD"/>
<path d="M119.324 178.663C119.897 181.638 120.507 184.604 121.172 187.56C121.898 191.639 123.139 195.61 124.867 199.376C125.008 199.579 125.106 199.807 125.157 200.048C125.208 200.289 125.21 200.538 125.163 200.78C124.998 201.118 124.73 201.393 124.396 201.566C121.311 203.644 118.16 205.76 114.576 206.776C111.424 207.523 108.185 207.834 104.949 207.7C104.823 207.715 104.696 207.696 104.58 207.644C104.349 207.506 104.339 207.192 104.349 206.924C104.506 203.284 103.425 199.699 103.425 196.059C103.425 192.419 104.349 188.779 105.393 185.241C105.836 183.698 106.603 183.578 108.09 183.005L113.476 180.954C113.883 180.742 119.361 178.83 119.324 178.663Z" fill="url(#paint12_linear_26_318)"/>
<path d="M122.456 218.62C122.488 218.948 122.628 219.257 122.854 219.497C123.181 219.72 123.582 219.807 123.972 219.738C126.235 219.566 128.409 218.784 130.263 217.474C130.974 216.966 131.704 216.079 131.279 215.322C131.127 215.124 130.937 214.959 130.719 214.836C130.502 214.714 130.262 214.637 130.013 214.61C129.155 214.419 128.278 214.329 127.399 214.342C127.176 214.368 126.95 214.336 126.743 214.25C126.355 214.037 126.3 213.511 126.3 213.067C126.3 208.661 126.383 204.245 126.66 199.847C126.766 198.863 126.748 197.87 126.605 196.891C126.448 195.9 125.907 195.01 125.099 194.415C124.101 193.768 121.958 193.851 121.357 195.089C121.108 195.616 121.357 196.346 121.403 196.937C121.486 197.953 121.505 198.979 121.533 199.995C121.616 203.977 121.459 207.959 121.662 211.931C121.762 214.177 122.028 216.413 122.456 218.62Z" fill="#F3A984"/>
<path d="M127.048 214.777C126.996 214.865 126.963 214.963 126.95 215.065C126.938 215.166 126.946 215.27 126.974 215.368C127.071 215.938 126.974 216.524 126.697 217.031C126.133 217.955 124.914 218.093 123.87 218.038C123.334 218.038 122.697 217.992 122.392 218.435C122.255 218.693 122.203 218.987 122.244 219.276C122.244 219.645 122.29 220.015 122.346 220.384C122.353 220.512 122.391 220.635 122.456 220.745C122.549 220.858 122.675 220.939 122.817 220.976C123.85 221.205 124.931 221.058 125.865 220.56L131.067 218.472C132.914 217.742 133.58 216.07 131.492 215.017C130.669 214.62 127.648 213.982 127.048 214.777Z" fill="#68E1FD"/>
<path d="M127.048 214.777C126.996 214.865 126.963 214.963 126.95 215.065C126.938 215.166 126.946 215.27 126.974 215.368C127.071 215.938 126.974 216.524 126.697 217.031C126.133 217.955 124.914 218.093 123.87 218.038C123.334 218.038 122.697 217.992 122.392 218.435C122.255 218.693 122.203 218.987 122.244 219.276C122.244 219.645 122.29 220.015 122.346 220.384C122.353 220.512 122.391 220.635 122.456 220.745C122.549 220.858 122.675 220.939 122.817 220.976C123.85 221.205 124.931 221.058 125.865 220.56L131.067 218.472C132.914 217.742 133.58 216.07 131.492 215.017C130.669 214.62 127.648 213.982 127.048 214.777Z" fill="url(#paint13_linear_26_318)"/>
<path d="M132.582 222.426C132.607 222.77 132.746 223.095 132.979 223.35C133.306 223.571 133.708 223.654 134.097 223.581C136.37 223.389 138.549 222.581 140.397 221.243C141.109 220.744 141.839 219.858 141.404 219.1C141.254 218.901 141.066 218.735 140.85 218.611C140.634 218.488 140.395 218.409 140.148 218.379C139.29 218.192 138.412 218.105 137.534 218.121C137.31 218.144 137.084 218.109 136.878 218.019C136.49 217.816 136.434 217.28 136.425 216.837C136.425 212.433 136.548 208.029 136.794 203.626C136.902 202.638 136.881 201.641 136.73 200.66C136.655 200.17 136.485 199.7 136.228 199.277C135.971 198.854 135.633 198.485 135.233 198.193C134.235 197.537 132.092 197.63 131.492 198.868C131.242 199.385 131.492 200.115 131.538 200.715C131.612 201.732 131.639 202.748 131.667 203.764C131.75 207.746 131.593 211.728 131.796 215.71C131.887 217.965 132.149 220.21 132.582 222.426Z" fill="#F3A984"/>
<path d="M137.423 218.361C137.371 218.45 137.338 218.548 137.325 218.649C137.312 218.751 137.321 218.854 137.349 218.953C137.446 219.522 137.348 220.108 137.072 220.616C136.508 221.539 135.289 221.678 134.245 221.623C133.709 221.623 133.071 221.576 132.767 222.02C132.629 222.277 132.578 222.572 132.619 222.86C132.619 223.23 132.619 223.6 132.72 223.969C132.727 224.096 132.766 224.22 132.831 224.329C132.923 224.443 133.05 224.524 133.191 224.56C134.225 224.79 135.306 224.643 136.24 224.145L141.441 222.121C143.289 221.392 143.954 219.719 141.866 218.666C141.044 218.25 138.023 217.613 137.423 218.361Z" fill="#68E1FD"/>
<path d="M137.423 218.361C137.371 218.45 137.338 218.548 137.325 218.649C137.312 218.751 137.321 218.854 137.349 218.953C137.446 219.522 137.348 220.108 137.072 220.616C136.508 221.539 135.289 221.678 134.245 221.623C133.709 221.623 133.071 221.576 132.767 222.02C132.629 222.277 132.578 222.572 132.619 222.86C132.619 223.23 132.619 223.6 132.72 223.969C132.727 224.096 132.766 224.22 132.831 224.329C132.923 224.443 133.05 224.524 133.191 224.56C134.225 224.79 135.306 224.643 136.24 224.145L141.441 222.121C143.289 221.392 143.954 219.719 141.866 218.666C141.044 218.25 138.023 217.613 137.423 218.361Z" fill="url(#paint14_linear_26_318)"/>
<path d="M119.98 168.741C119.324 171.717 118.999 174.757 119.01 177.804L118.604 190.174C118.539 192.262 118.493 194.443 119.417 196.309C120.432 198.11 122.038 199.506 123.962 200.263C128.23 202.166 133.09 202.009 137.755 201.824C138.678 201.871 139.596 201.66 140.407 201.214C141.487 200.475 141.802 199.043 141.885 197.75C142.125 193.704 140.841 189.75 140.037 185.74C139.352 182.334 139.021 178.867 139.048 175.393C139.16 174.438 138.98 173.472 138.531 172.621C138.125 172.116 137.61 171.709 137.025 171.43C134.099 169.79 131.001 168.48 127.787 167.522C126.097 166.908 124.287 166.699 122.502 166.912C121.495 167.143 120.257 167.706 119.98 168.741Z" fill="#606161"/>
<path d="M119.98 168.741C119.324 171.717 118.999 174.757 119.01 177.804L118.604 190.174C118.539 192.262 118.493 194.443 119.417 196.309C120.432 198.11 122.038 199.506 123.962 200.263C128.23 202.166 133.09 202.009 137.755 201.824C138.678 201.871 139.596 201.66 140.407 201.214C141.487 200.475 141.802 199.043 141.885 197.75C142.125 193.704 140.841 189.75 140.037 185.74C139.352 182.334 139.021 178.867 139.048 175.393C139.16 174.438 138.98 173.472 138.531 172.621C138.125 172.116 137.61 171.709 137.025 171.43C134.099 169.79 131.001 168.48 127.787 167.522C126.097 166.908 124.287 166.699 122.502 166.912C121.495 167.143 120.257 167.706 119.98 168.741Z" fill="url(#paint15_linear_26_318)"/>
<path d="M132.258 137.173C129.958 135.963 127.574 134.725 124.978 134.568C122.382 134.411 119.509 135.631 118.595 138.07C118.268 139.111 118.133 140.204 118.197 141.294L118.077 162.644C117.968 164.395 118.165 166.152 118.659 167.836C119.639 170.608 122.124 172.529 124.738 173.841C127.999 175.467 131.815 176.335 135.326 175.356C136.368 175.126 137.312 174.573 138.023 173.776C138.947 172.603 138.947 171.005 138.947 169.508L138.79 147.336C138.812 146.3 138.741 145.264 138.578 144.241C137.894 140.776 135.205 138.698 132.258 137.173Z" fill="#68E1FD"/>
<path d="M132.258 137.173C129.958 135.963 127.574 134.725 124.978 134.568C122.382 134.411 119.509 135.631 118.595 138.07C118.268 139.111 118.133 140.204 118.197 141.294L118.077 162.644C117.968 164.395 118.165 166.152 118.659 167.836C119.639 170.608 122.124 172.529 124.738 173.841C127.999 175.467 131.815 176.335 135.326 175.356C136.368 175.126 137.312 174.573 138.023 173.776C138.947 172.603 138.947 171.005 138.947 169.508L138.79 147.336C138.812 146.3 138.741 145.264 138.578 144.241C137.894 140.776 135.205 138.698 132.258 137.173Z" fill="url(#paint16_linear_26_318)"/>
<path d="M135.215 130.411C135.176 131.011 135.016 131.597 134.745 132.134C134.473 132.67 134.096 133.146 133.635 133.533C133.275 133.785 132.963 134.097 132.711 134.457C132.259 135.27 132.656 136.305 132.48 137.229C132.433 137.52 132.272 137.78 132.033 137.953C131.794 138.126 131.497 138.198 131.205 138.152C130.637 138.121 130.086 137.949 129.602 137.65C129.118 137.352 128.717 136.937 128.434 136.443C127.872 135.435 127.538 134.315 127.454 133.164C127.248 131.506 127.208 129.832 127.334 128.166C127.366 127.135 127.612 126.122 128.055 125.191C128.437 124.461 129.035 123.867 129.768 123.49C130.501 123.113 131.332 122.971 132.148 123.084C132.802 123.22 133.4 123.547 133.868 124.024C134.335 124.502 134.65 125.107 134.771 125.764C134.882 126.42 134.771 127.103 134.818 127.759C135.006 128.634 135.138 129.519 135.215 130.411Z" fill="#F3A984"/>
<path d="M120.378 135.325C119.974 137.097 119.718 138.898 119.611 140.711C119.542 143.642 120.273 146.536 121.727 149.081C122.586 150.578 123.898 152.047 125.625 152.195C126.482 152.197 127.32 151.946 128.033 151.472C128.747 150.999 129.304 150.324 129.635 149.534C130.26 147.934 130.494 146.208 130.318 144.499C130.141 142.799 130.172 141.083 130.411 139.39C130.771 137.663 131.658 136.101 132.138 134.401C132.642 132.131 132.773 129.794 132.526 127.482C132.54 126.947 132.433 126.417 132.212 125.93C131.919 125.462 131.499 125.088 131.002 124.849C129.837 124.218 128.539 123.875 127.215 123.848C125.891 123.82 124.579 124.11 123.389 124.692C121.449 125.671 121.246 126.909 121.477 128.766C121.727 130.771 120.784 133.256 120.378 135.325Z" fill="#606161"/>
<path d="M120.378 135.325C119.974 137.097 119.718 138.898 119.611 140.711C119.542 143.642 120.273 146.536 121.727 149.081C122.586 150.578 123.898 152.047 125.625 152.195C126.482 152.197 127.32 151.946 128.033 151.472C128.747 150.999 129.304 150.324 129.635 149.534C130.26 147.934 130.494 146.208 130.318 144.499C130.141 142.799 130.172 141.083 130.411 139.39C130.771 137.663 131.658 136.101 132.138 134.401C132.642 132.131 132.773 129.794 132.526 127.482C132.54 126.947 132.433 126.417 132.212 125.93C131.919 125.462 131.499 125.088 131.002 124.849C129.837 124.218 128.539 123.875 127.215 123.848C125.891 123.82 124.579 124.11 123.389 124.692C121.449 125.671 121.246 126.909 121.477 128.766C121.727 130.771 120.784 133.256 120.378 135.325Z" fill="url(#paint17_linear_26_318)"/>
<path d="M129.041 132.932C136.05 130.306 140.502 124.892 138.984 120.84C137.466 116.789 130.553 115.633 123.544 118.259C116.535 120.886 112.083 126.299 113.601 130.351C115.119 134.403 122.032 135.558 129.041 132.932Z" fill="#68E1FD"/>
<path d="M128.933 132.838C135.942 130.212 140.393 124.798 138.875 120.746C137.357 116.695 130.444 115.539 123.435 118.165C116.426 120.792 111.975 126.205 113.493 130.257C115.011 134.309 121.923 135.464 128.933 132.838Z" fill="url(#paint18_linear_26_318)"/>
<path d="M144.287 155.65C145.588 161.943 146.431 168.322 146.809 174.737C146.874 175.799 146.809 177.074 145.932 177.656C145.58 177.846 145.181 177.93 144.783 177.899C144.385 177.868 144.004 177.723 143.687 177.481C143.053 176.98 142.534 176.35 142.162 175.633C138.633 169.85 136.287 163.429 134.282 156.953C133.257 154.091 132.69 151.085 132.6 148.047C132.647 145.802 133.21 143.049 134.744 141.312C136.702 139.086 138.208 141.035 139.52 142.901C142.144 146.68 143.372 151.243 144.287 155.65Z" fill="#68E1FD"/>
<path d="M144.287 155.65C145.588 161.943 146.431 168.322 146.809 174.737C146.874 175.799 146.809 177.074 145.932 177.656C145.58 177.846 145.181 177.93 144.783 177.899C144.385 177.868 144.004 177.723 143.687 177.481C143.053 176.98 142.534 176.35 142.162 175.633C138.633 169.85 136.287 163.429 134.282 156.953C133.257 154.091 132.69 151.085 132.6 148.047C132.647 145.802 133.21 143.049 134.744 141.312C136.702 139.086 138.208 141.035 139.52 142.901C142.144 146.68 143.372 151.243 144.287 155.65Z" fill="url(#paint19_linear_26_318)"/>
<path d="M126.604 116.045C125.471 115.745 124.273 115.794 123.167 116.184C122.062 116.575 121.099 117.289 120.405 118.234C119.066 120.211 119.214 122.854 119.906 125.145C119.991 125.503 120.185 125.826 120.461 126.069C120.741 126.235 121.059 126.324 121.385 126.327C123.232 126.521 125.154 126.688 126.835 125.93C128.517 125.172 131.288 122.475 131.279 120.609C131.224 118.585 128.332 116.507 126.604 116.045Z" fill="#68E1FD"/>
<path d="M131.242 120.636C131.242 122.484 128.387 125.256 126.789 125.967C125.037 126.569 123.158 126.703 121.338 126.355C121.015 126.357 120.696 126.274 120.415 126.115C120.145 125.848 119.953 125.513 119.86 125.145C119.679 124.517 119.54 123.878 119.445 123.232C119.512 123.244 119.581 123.244 119.648 123.232C121.496 123.408 123.426 123.583 125.108 122.817C126.641 122.142 129.348 119.574 129.524 117.717C129.996 118.059 130.393 118.494 130.689 118.997C130.984 119.499 131.173 120.058 131.242 120.636Z" fill="url(#paint20_linear_26_318)"/>
<path d="M129.561 117.772C129.385 119.62 126.678 122.198 125.145 122.872C123.463 123.639 121.514 123.463 119.685 123.288C119.618 123.299 119.549 123.299 119.482 123.288C119.169 121.568 119.498 119.793 120.406 118.299C121.098 117.354 122.058 116.639 123.162 116.245C124.265 115.851 125.461 115.798 126.595 116.091C127.695 116.428 128.707 117.002 129.561 117.772Z" fill="url(#paint21_linear_26_318)"/>
<path d="M141.192 186.036C140.857 183.266 141.352 180.459 142.615 177.97C142.799 177.575 143.056 177.217 143.372 176.917C143.813 176.589 144.347 176.411 144.897 176.411C145.446 176.411 145.981 176.589 146.421 176.917C147.242 177.56 147.827 178.457 148.084 179.467C148.529 180.886 148.627 182.391 148.37 183.855L147.798 183.754C148.038 182.382 147.946 180.972 147.53 179.643C147.312 178.753 146.805 177.96 146.089 177.388C145.749 177.141 145.34 177.008 144.92 177.008C144.5 177.008 144.091 177.141 143.751 177.388C143.489 177.655 143.279 177.969 143.132 178.312C141.92 180.694 141.444 183.382 141.765 186.036H141.192Z" fill="#68E1FD"/>
<path d="M150.56 182.063L155.789 207.931C155.844 208.199 155.844 208.476 155.789 208.744C155.66 209.28 155.124 209.594 154.634 209.843C149.327 212.36 143.858 214.52 138.263 216.31C138.153 216.351 138.032 216.351 137.922 216.31C137.83 216.246 137.764 216.151 137.737 216.042C137.535 215.328 137.448 214.586 137.478 213.844C137.386 208.19 137.078 202.548 136.554 196.919C136.425 195.496 136.277 194.083 136.111 192.669C135.991 191.597 135.381 189.787 135.64 188.761C136.037 187.191 140.527 186.258 141.977 185.666C142.726 185.371 150.56 182.442 150.56 182.063Z" fill="#68E1FD"/>
<path d="M150.56 182.063L155.789 207.931C155.844 208.199 155.844 208.476 155.789 208.744C155.66 209.28 155.124 209.594 154.634 209.843C149.327 212.36 143.858 214.52 138.263 216.31C138.153 216.351 138.032 216.351 137.922 216.31C137.83 216.246 137.764 216.151 137.737 216.042C137.535 215.328 137.448 214.586 137.478 213.844C137.386 208.19 137.078 202.548 136.554 196.919C136.425 195.496 136.277 194.083 136.111 192.669C135.991 191.597 135.381 189.787 135.64 188.761C136.037 187.191 140.527 186.258 141.977 185.666C142.726 185.371 150.56 182.442 150.56 182.063Z" fill="url(#paint22_linear_26_318)"/>
<path d="M153.729 180.927L158.958 206.748C159.017 207.019 159.017 207.3 158.958 207.571C158.828 208.106 158.292 208.421 157.803 208.67C152.496 211.187 147.027 213.347 141.432 215.137C141.378 215.16 141.32 215.171 141.261 215.171C141.203 215.171 141.144 215.16 141.09 215.137C141.043 215.107 141.002 215.068 140.97 215.022C140.938 214.976 140.916 214.924 140.906 214.869C140.704 214.154 140.616 213.412 140.647 212.67C140.555 207.026 140.24 201.372 139.723 195.745C139.594 194.332 139.446 192.909 139.28 191.496C139.159 190.433 138.55 188.622 138.808 187.597C139.206 186.026 143.696 185.084 145.146 184.493C145.941 184.225 153.793 181.259 153.729 180.927Z" fill="#68E1FD"/>
<path d="M145.063 187.006C143.548 184.663 142.763 181.924 142.809 179.134C142.8 178.697 142.872 178.262 143.021 177.85C143.271 177.353 143.678 176.953 144.18 176.712C144.681 176.471 145.249 176.404 145.793 176.52C146.813 176.737 147.733 177.286 148.407 178.081C149.426 179.163 150.173 180.47 150.588 181.897L150.033 182.054C149.641 180.717 148.938 179.492 147.982 178.479C147.395 177.776 146.593 177.286 145.7 177.083C145.288 177.005 144.86 177.059 144.48 177.238C144.1 177.417 143.786 177.712 143.585 178.081C143.466 178.423 143.41 178.782 143.419 179.144C143.37 181.819 144.123 184.448 145.58 186.692L145.063 187.006Z" fill="#68E1FD"/>
<path d="M154.588 181.86L159.798 207.682C159.858 207.953 159.858 208.233 159.798 208.504C159.678 209.04 159.133 209.354 158.644 209.603C153.336 212.12 147.867 214.28 142.273 216.07C142.221 216.095 142.164 216.108 142.107 216.108C142.049 216.108 141.992 216.095 141.94 216.07C141.893 216.041 141.852 216.002 141.82 215.956C141.788 215.909 141.766 215.857 141.756 215.802C141.553 215.088 141.466 214.346 141.497 213.604C141.405 207.959 141.09 202.305 140.573 196.679C140.435 195.265 140.287 193.842 140.13 192.429C140 191.367 139.4 189.556 139.658 188.53C140.056 186.96 144.536 186.017 145.996 185.426C146.809 185.158 154.662 182.193 154.588 181.86Z" fill="url(#paint23_linear_26_318)"/>
<path d="M157.812 180.714L163.032 206.582C163.107 206.846 163.123 207.124 163.078 207.395C162.958 207.931 162.422 208.245 161.923 208.495C156.616 211.011 151.147 213.172 145.553 214.961C145.445 215.002 145.327 215.002 145.22 214.961C145.128 214.898 145.062 214.802 145.035 214.694C144.833 213.979 144.746 213.237 144.777 212.495C144.684 206.841 144.376 201.199 143.853 195.57C143.723 194.147 143.566 192.734 143.409 191.32C143.289 190.248 142.679 188.438 142.938 187.412C143.335 185.842 147.816 184.909 149.276 184.317C150.024 184.022 157.877 181.047 157.812 180.714Z" fill="#68E1FD"/>
<path d="M157.812 180.714L163.032 206.582C163.107 206.846 163.123 207.124 163.078 207.395C162.958 207.931 162.422 208.245 161.923 208.495C156.616 211.011 151.147 213.172 145.553 214.961C145.445 215.002 145.327 215.002 145.22 214.961C145.128 214.898 145.062 214.802 145.035 214.694C144.833 213.979 144.746 213.237 144.777 212.495C144.684 206.841 144.376 201.199 143.853 195.57C143.723 194.147 143.566 192.734 143.409 191.32C143.289 190.248 142.679 188.438 142.938 187.412C143.335 185.842 147.816 184.909 149.276 184.317C150.024 184.022 157.877 181.047 157.812 180.714Z" fill="url(#paint24_linear_26_318)"/>
<path d="M143.917 174.22C143.324 174.245 142.755 174.465 142.301 174.848C142.168 175.029 142.074 175.236 142.023 175.455C141.972 175.674 141.966 175.901 142.005 176.123C142.06 176.566 142.199 176.991 142.245 177.434C142.338 178.303 142.079 179.282 142.476 180.021C142.703 180.377 143.018 180.669 143.39 180.868C143.762 181.067 144.179 181.167 144.601 181.158C145.301 181.218 146.002 181.048 146.596 180.672C147.19 180.297 147.644 179.737 147.89 179.079C147.99 178.64 148.012 178.186 147.955 177.739C147.835 176.677 147.437 174.534 146.67 173.73C145.904 172.926 144.795 174.035 143.917 174.22Z" fill="#F3A984"/>
<path d="M81.567 120.821V116.433C79.2145 116.43 76.91 115.767 74.9153 114.52L75.9592 111.61C77.827 112.813 80.0011 113.455 82.2229 113.458C85.3086 113.458 87.3965 111.684 87.3965 109.199C87.3965 106.714 85.6966 105.337 82.4816 104.034C78.0471 102.288 75.3125 100.293 75.3125 96.5144C75.3125 92.9021 77.8716 90.1675 81.8719 89.5116V85.1233H84.5695V89.336C86.5502 89.3548 88.4933 89.8795 90.2142 90.8604L89.1333 93.752C87.4779 92.7647 85.5823 92.2533 83.6549 92.2739C80.3106 92.2739 79.0357 94.2694 79.0357 95.9693C79.0357 98.2327 80.6431 99.3598 84.4309 100.93C88.9024 102.778 91.1658 105.014 91.1658 108.875C91.1658 112.312 88.773 115.527 84.2924 116.266V120.784L81.567 120.821Z" fill="white"/>
<path d="M46.1649 157.71V153.322C43.8124 153.319 41.5079 152.657 39.5132 151.41L40.6218 148.499C42.4895 149.703 44.6637 150.344 46.8855 150.347C49.9712 150.347 52.0498 148.573 52.0498 146.088C52.0498 143.603 50.3592 142.227 47.1442 140.924C42.7097 139.178 39.9751 137.182 39.9751 133.404C39.9751 129.792 42.5342 127.057 46.5344 126.401V122.013H49.2321V126.225C51.2128 126.244 53.1559 126.769 54.8768 127.75L53.7959 130.623C52.1405 129.636 50.2448 129.124 48.3175 129.145C44.9731 129.145 43.6982 131.14 43.6982 132.84C43.6982 135.104 45.3057 136.231 49.0935 137.801C53.5649 139.649 55.8284 141.885 55.8284 145.746C55.8284 149.183 53.4356 152.398 48.9549 153.137V157.655L46.1649 157.71Z" fill="white"/>
<path d="M403.916 157.71V153.322C401.564 153.319 399.259 152.657 397.265 151.41L398.309 148.499C400.176 149.704 402.35 150.345 404.572 150.347C407.658 150.347 409.737 148.573 409.737 146.088C409.737 143.603 408.046 142.227 404.831 140.924C400.397 139.178 397.662 137.182 397.662 133.404C397.662 129.792 400.221 127.057 404.221 126.401V122.013H406.919V126.225C408.9 126.244 410.843 126.769 412.564 127.75L411.483 130.623C409.827 129.636 407.932 129.124 406.004 129.145C402.651 129.145 401.385 131.14 401.385 132.84C401.385 135.104 402.993 136.231 406.78 137.801C411.252 139.649 413.515 141.885 413.515 145.746C413.515 149.183 411.122 152.398 406.642 153.137V157.655L403.916 157.71Z" fill="white"/>
<path d="M355.876 97.8912V93.5029C353.524 93.5012 351.219 92.8386 349.225 91.5905L350.269 88.6804C352.133 89.8834 354.304 90.5248 356.523 90.5281C359.609 90.5281 361.697 88.745 361.697 86.2691C361.697 83.7932 360.006 82.4074 356.782 81.0956C352.356 79.3587 349.613 77.4002 349.613 73.5847C349.613 69.9724 352.181 67.2378 356.181 66.5819V62.1936H358.87V66.4064C360.853 66.4268 362.799 66.9514 364.524 67.9307L363.433 70.8039C361.779 69.8153 359.883 69.3037 357.955 69.3257C354.611 69.3257 353.336 71.3212 353.336 73.0211C353.336 75.2846 354.943 76.4117 358.722 77.973C363.202 79.8207 365.457 82.0656 365.457 85.9273C365.457 89.364 363.073 92.579 358.592 93.3181V97.8357L355.876 97.8912Z" fill="white"/>
</g>
<defs>
<linearGradient id="paint0_linear_26_318" x1="169.166" y1="260.378" x2="347.118" y2="260.378" gradientUnits="userSpaceOnUse">
<stop stop-color="#010101" stop-opacity="0"/>
<stop offset="0.95" stop-color="#010101"/>
</linearGradient>
<linearGradient id="paint1_linear_26_318" x1="31686.7" y1="24722.2" x2="36980.4" y2="15199.7" gradientUnits="userSpaceOnUse">
<stop stop-color="#010101" stop-opacity="0"/>
<stop offset="0.95" stop-color="#010101"/>
</linearGradient>
<linearGradient id="paint2_linear_26_318" x1="82347.8" y1="45287.2" x2="838.362" y2="154851" gradientUnits="userSpaceOnUse">
<stop stop-color="#010101" stop-opacity="0"/>
<stop offset="0.95" stop-color="#010101"/>
</linearGradient>
<linearGradient id="paint3_linear_26_318" x1="243.721" y1="180.049" x2="352.19" y2="-177.102" gradientUnits="userSpaceOnUse">
<stop stop-color="white" stop-opacity="0"/>
<stop offset="0.66" stop-color="white"/>
</linearGradient>
<linearGradient id="paint4_linear_26_318" x1="59634.2" y1="22399" x2="57028.8" y2="31544.2" gradientUnits="userSpaceOnUse">
<stop stop-color="#010101" stop-opacity="0"/>
<stop offset="0.95" stop-color="#010101"/>
</linearGradient>
<linearGradient id="paint5_linear_26_318" x1="51097.4" y1="17399.8" x2="51139.4" y2="34615.2" gradientUnits="userSpaceOnUse">
<stop stop-color="#010101" stop-opacity="0"/>
<stop offset="0.95" stop-color="#010101"/>
</linearGradient>
<linearGradient id="paint6_linear_26_318" x1="15397.6" y1="7124.64" x2="13284.3" y2="15491" gradientUnits="userSpaceOnUse">
<stop stop-color="#010101" stop-opacity="0"/>
<stop offset="0.95" stop-color="#010101"/>
</linearGradient>
<linearGradient id="paint7_linear_26_318" x1="31076.8" y1="17652.6" x2="41119.6" y2="40896.3" gradientUnits="userSpaceOnUse">
<stop stop-color="#010101" stop-opacity="0"/>
<stop offset="0.95" stop-color="#010101"/>
</linearGradient>
<linearGradient id="paint8_linear_26_318" x1="1807.67" y1="597.975" x2="1826.94" y2="638.559" gradientUnits="userSpaceOnUse">
<stop stop-color="#010101" stop-opacity="0"/>
<stop offset="0.95" stop-color="#010101"/>
</linearGradient>
<linearGradient id="paint9_linear_26_318" x1="70055.1" y1="35757.8" x2="66261.5" y2="124306" gradientUnits="userSpaceOnUse">
<stop stop-color="#010101" stop-opacity="0"/>
<stop offset="0.95" stop-color="#010101"/>
</linearGradient>
<linearGradient id="paint10_linear_26_318" x1="2640.7" y1="6670.54" x2="3350.94" y2="7135.09" gradientUnits="userSpaceOnUse">
<stop stop-color="#010101" stop-opacity="0"/>
<stop offset="0.95" stop-color="#010101"/>
</linearGradient>
<linearGradient id="paint11_linear_26_318" x1="1723.25" y1="6839.48" x2="1480.93" y2="6842.84" gradientUnits="userSpaceOnUse">
<stop stop-color="#010101" stop-opacity="0"/>
<stop offset="0.95" stop-color="#010101"/>
</linearGradient>
<linearGradient id="paint12_linear_26_318" x1="2963.16" y1="7012.59" x2="3533.04" y2="8490.25" gradientUnits="userSpaceOnUse">
<stop stop-color="#010101" stop-opacity="0"/>
<stop offset="0.95" stop-color="#010101"/>
</linearGradient>
<linearGradient id="paint13_linear_26_318" x1="1728.55" y1="2030.22" x2="1733.97" y2="2100.49" gradientUnits="userSpaceOnUse">
<stop stop-color="#010101" stop-opacity="0"/>
<stop offset="0.95" stop-color="#010101"/>
</linearGradient>
<linearGradient id="paint14_linear_26_318" x1="1861.65" y1="2033.52" x2="1864.63" y2="2133.81" gradientUnits="userSpaceOnUse">
<stop stop-color="#010101" stop-opacity="0"/>
<stop offset="0.95" stop-color="#010101"/>
</linearGradient>
<linearGradient id="paint15_linear_26_318" x1="3465.16" y1="8664.19" x2="4054.75" y2="8664.19" gradientUnits="userSpaceOnUse">
<stop stop-color="#010101" stop-opacity="0"/>
<stop offset="0.95" stop-color="#010101"/>
</linearGradient>
<linearGradient id="paint16_linear_26_318" x1="3523.53" y1="7630.94" x2="1584.25" y2="10878.6" gradientUnits="userSpaceOnUse">
<stop stop-color="#010101" stop-opacity="0"/>
<stop offset="0.95" stop-color="#010101"/>
</linearGradient>
<linearGradient id="paint17_linear_26_318" x1="2001.95" y1="5858.54" x2="2314.33" y2="5632.67" gradientUnits="userSpaceOnUse">
<stop stop-color="#010101" stop-opacity="0"/>
<stop offset="0.95" stop-color="#010101"/>
</linearGradient>
<linearGradient id="paint18_linear_26_318" x1="7208.94" y1="1639.84" x2="7338.86" y2="1253.38" gradientUnits="userSpaceOnUse">
<stop stop-color="white" stop-opacity="0"/>
<stop offset="0.66" stop-color="white"/>
</linearGradient>
<linearGradient id="paint19_linear_26_318" x1="2614.11" y1="8114.85" x2="2182.6" y2="8175.62" gradientUnits="userSpaceOnUse">
<stop stop-color="#010101" stop-opacity="0"/>
<stop offset="0.95" stop-color="#010101"/>
</linearGradient>
<linearGradient id="paint20_linear_26_318" x1="1837.4" y1="1701.23" x2="1939.86" y2="1603.14" gradientUnits="userSpaceOnUse">
<stop stop-color="white" stop-opacity="0"/>
<stop offset="0.66" stop-color="white"/>
</linearGradient>
<linearGradient id="paint21_linear_26_318" x1="1642.17" y1="1410.52" x2="1707.2" y2="1347.38" gradientUnits="userSpaceOnUse">
<stop stop-color="white" stop-opacity="0"/>
<stop offset="0.66" stop-color="white"/>
</linearGradient>
<linearGradient id="paint22_linear_26_318" x1="3857.03" y1="8845.12" x2="2620.05" y2="9170.47" gradientUnits="userSpaceOnUse">
<stop stop-color="#010101" stop-opacity="0"/>
<stop offset="0.95" stop-color="#010101"/>
</linearGradient>
<linearGradient id="paint23_linear_26_318" x1="3949.38" y1="8829.72" x2="2712.91" y2="9155" gradientUnits="userSpaceOnUse">
<stop stop-color="#010101" stop-opacity="0"/>
<stop offset="0.95" stop-color="#010101"/>
</linearGradient>
<linearGradient id="paint24_linear_26_318" x1="3434.05" y1="8251.68" x2="5049.62" y2="9491.36" gradientUnits="userSpaceOnUse">
<stop stop-color="#010101" stop-opacity="0"/>
<stop offset="0.95" stop-color="#010101"/>
</linearGradient>
<clipPath id="clip0_26_318">
<rect width="487.109" height="376.09" fill="white"/>
</clipPath>
</defs>
</svg>
